M48
INCH
T44C0.012
T43C0.129
T42C0.055
%
T44
X004050Y009650
X004450Y009650
X004550Y001400
X004850Y009650
X004850Y001400
X005150Y003700
X005250Y009650
X005650Y009650
X006050Y009650
X006150Y004000
X006150Y003700
X006450Y009650
X006850Y009650
X007100Y004000
X007100Y003700
X007250Y009650
X007250Y006600
X007400Y003850
X007450Y005150
X007450Y004300
X007600Y006600
X007650Y009650
X007700Y005150
X007700Y004300
X007700Y003850
X007950Y006600
X008050Y009650
X008450Y009650
X008450Y006600
X008850Y009650
X008850Y006400
X008850Y006100
X008850Y002800
X009250Y009650
X009250Y009250
X009250Y008850
X009250Y008450
X009250Y008050
X009250Y007650
X009250Y007250
X009250Y006850
X009250Y006400
X009250Y006100
X009250Y002800
X009650Y009650
X009650Y006400
X009650Y006100
X009650Y002800
X010050Y009650
X010050Y006600
X010450Y009650
X010550Y006600
X010700Y006113
X010750Y003300
X010750Y002400
X010800Y005150
X010800Y004300
X010850Y009650
X010900Y006600
X011050Y005150
X011050Y004300
X011050Y003950
X011250Y009650
X011250Y006600
X011650Y009650
X012000Y004050
X012000Y003800
X012050Y009650
X012300Y003000
X012300Y002700
X012450Y009650
X012850Y009650
X013250Y009650
X013650Y009650
X013900Y009150
X013900Y008800
X013900Y008450
X014050Y009650
X014250Y009150
X014250Y008800
X014250Y008450
X014450Y009650
X014550Y007850
X014550Y007500
X014550Y007150
X014600Y009150
X014600Y008800
X014600Y008450
X014900Y007850
X014900Y007500
X014900Y007150
X014950Y008800
X014950Y008450
X015300Y008800
X015300Y008450
X016050Y011900
X016650Y014550
X018150Y014550
T42
X002650Y008600
X002650Y006600
X002650Y004600
X017350Y008600
X017350Y006600
X017350Y004600
T43
X001700Y016700
X001700Y001700
X018300Y016700
X018300Y001700
M30
