G04 start of page 12 for group -3984 idx -3984 *
G04 Title: (unknown), fab *
G04 Creator: pcb 20140316 *
G04 CreationDate: Thu 02 Jul 2020 08:37:42 PM GMT UTC *
G04 For: railfan *
G04 Format: Gerber/RS-274X *
G04 PCB-Dimensions (mil): 2000.00 1840.00 *
G04 PCB-Coordinate-Origin: lower left *
%MOIN*%
%FSLAX25Y25*%
%LNFAB*%
%ADD79C,0.0100*%
%ADD78C,0.0075*%
%ADD77C,0.0060*%
%ADD76C,0.0001*%
G54D76*G36*
X15800Y18766D02*X18766Y15800D01*
X18200Y15234D01*
X15234Y18200D01*
X15800Y18766D01*
G37*
G36*
X15234Y15800D02*X18200Y18766D01*
X18766Y18200D01*
X15800Y15234D01*
X15234Y15800D01*
G37*
G36*
X15800Y168766D02*X18766Y165800D01*
X18200Y165234D01*
X15234Y168200D01*
X15800Y168766D01*
G37*
G36*
X15234Y165800D02*X18200Y168766D01*
X18766Y168200D01*
X15800Y165234D01*
X15234Y165800D01*
G37*
G36*
X181800Y168766D02*X184766Y165800D01*
X184200Y165234D01*
X181234Y168200D01*
X181800Y168766D01*
G37*
G36*
X181234Y165800D02*X184200Y168766D01*
X184766Y168200D01*
X181800Y165234D01*
X181234Y165800D01*
G37*
G36*
X181800Y18766D02*X184766Y15800D01*
X184200Y15234D01*
X181234Y18200D01*
X181800Y18766D01*
G37*
G36*
X181234Y15800D02*X184200Y18766D01*
X184766Y18200D01*
X181800Y15234D01*
X181234Y15800D01*
G37*
G36*
X13800Y212016D02*X16766Y209050D01*
X16200Y208484D01*
X13234Y211450D01*
X13800Y212016D01*
G37*
G36*
X13234Y209050D02*X16200Y212016D01*
X16766Y211450D01*
X13800Y208484D01*
X13234Y209050D01*
G37*
G54D77*X135000Y212500D02*X136500Y209500D01*
X138000Y212500D01*
X136500Y209500D02*Y206500D01*
X139800Y209800D02*X142050D01*
X139800Y206500D02*X142800D01*
X139800Y212500D02*Y206500D01*
Y212500D02*X142800D01*
X147600D02*X148350Y211750D01*
X145350Y212500D02*X147600D01*
X144600Y211750D02*X145350Y212500D01*
X144600Y211750D02*Y210250D01*
X145350Y209500D01*
X147600D01*
X148350Y208750D01*
Y207250D01*
X147600Y206500D02*X148350Y207250D01*
X145350Y206500D02*X147600D01*
X144600Y207250D02*X145350Y206500D01*
X98000Y208750D02*X101000Y212500D01*
X98000Y208750D02*X101750D01*
X101000Y212500D02*Y206500D01*
X45000Y207250D02*X45750Y206500D01*
X45000Y211750D02*Y207250D01*
Y211750D02*X45750Y212500D01*
X47250D01*
X48000Y211750D01*
Y207250D01*
X47250Y206500D02*X48000Y207250D01*
X45750Y206500D02*X47250D01*
X45000Y208000D02*X48000Y211000D01*
X49800Y206500D02*X50550D01*
X52350Y211300D02*X53550Y212500D01*
Y206500D01*
X52350D02*X54600D01*
X56400Y211750D02*X57150Y212500D01*
X59400D01*
X60150Y211750D01*
Y210250D01*
X56400Y206500D02*X60150Y210250D01*
X56400Y206500D02*X60150D01*
X62700D02*X64950Y209500D01*
Y211750D02*Y209500D01*
X64200Y212500D02*X64950Y211750D01*
X62700Y212500D02*X64200D01*
X61950Y211750D02*X62700Y212500D01*
X61950Y211750D02*Y210250D01*
X62700Y209500D01*
X64950D01*
X26500Y87600D02*Y84400D01*
X24900Y86000D02*X28100D01*
X26500Y67600D02*Y64400D01*
X24900Y66000D02*X28100D01*
X26500Y47600D02*Y44400D01*
X24900Y46000D02*X28100D01*
X173500Y47600D02*Y44400D01*
X171900Y46000D02*X175100D01*
X173500Y67600D02*Y64400D01*
X171900Y66000D02*X175100D01*
X173500Y87600D02*Y84400D01*
X171900Y86000D02*X175100D01*
X15000Y226850D02*Y223650D01*
X13400Y225250D02*X16600D01*
X135000Y227500D02*X136500Y224500D01*
X138000Y227500D01*
X136500Y224500D02*Y221500D01*
X139800Y224800D02*X142050D01*
X139800Y221500D02*X142800D01*
X139800Y227500D02*Y221500D01*
Y227500D02*X142800D01*
X147600D02*X148350Y226750D01*
X145350Y227500D02*X147600D01*
X144600Y226750D02*X145350Y227500D01*
X144600Y226750D02*Y225250D01*
X145350Y224500D01*
X147600D01*
X148350Y223750D01*
Y222250D01*
X147600Y221500D02*X148350Y222250D01*
X145350Y221500D02*X147600D01*
X144600Y222250D02*X145350Y221500D01*
X100250Y227500D02*X101000Y226750D01*
X98750Y227500D02*X100250D01*
X98000Y226750D02*X98750Y227500D01*
X98000Y226750D02*Y222250D01*
X98750Y221500D01*
X100250Y224800D02*X101000Y224050D01*
X98000Y224800D02*X100250D01*
X98750Y221500D02*X100250D01*
X101000Y222250D01*
Y224050D02*Y222250D01*
X45000D02*X45750Y221500D01*
X45000Y226750D02*Y222250D01*
Y226750D02*X45750Y227500D01*
X47250D01*
X48000Y226750D01*
Y222250D01*
X47250Y221500D02*X48000Y222250D01*
X45750Y221500D02*X47250D01*
X45000Y223000D02*X48000Y226000D01*
X49800Y221500D02*X50550D01*
X52350Y222250D02*X53100Y221500D01*
X52350Y226750D02*Y222250D01*
Y226750D02*X53100Y227500D01*
X54600D01*
X55350Y226750D01*
Y222250D01*
X54600Y221500D02*X55350Y222250D01*
X53100Y221500D02*X54600D01*
X52350Y223000D02*X55350Y226000D01*
X57150Y227500D02*X60150D01*
X57150D02*Y224500D01*
X57900Y225250D01*
X59400D01*
X60150Y224500D01*
Y222250D01*
X59400Y221500D02*X60150Y222250D01*
X57900Y221500D02*X59400D01*
X57150Y222250D02*X57900Y221500D01*
X61950Y227500D02*X64950D01*
X61950D02*Y224500D01*
X62700Y225250D01*
X64200D01*
X64950Y224500D01*
Y222250D01*
X64200Y221500D02*X64950Y222250D01*
X62700Y221500D02*X64200D01*
X61950Y222250D02*X62700Y221500D01*
X92500Y61000D02*Y59400D01*
Y61000D02*X93887Y61800D01*
X92500Y61000D02*X91113Y61800D01*
X96500Y61000D02*Y59400D01*
Y61000D02*X97887Y61800D01*
X96500Y61000D02*X95113Y61800D01*
X88500Y61000D02*Y59400D01*
Y61000D02*X89887Y61800D01*
X88500Y61000D02*X87113Y61800D01*
X88500Y28000D02*Y26400D01*
Y28000D02*X89887Y28800D01*
X88500Y28000D02*X87113Y28800D01*
X92500Y28000D02*Y26400D01*
Y28000D02*X93887Y28800D01*
X92500Y28000D02*X91113Y28800D01*
X96500Y28000D02*Y26400D01*
Y28000D02*X97887Y28800D01*
X96500Y28000D02*X95113Y28800D01*
X108000Y43000D02*Y41400D01*
Y43000D02*X109387Y43800D01*
X108000Y43000D02*X106613Y43800D01*
X110500Y43000D02*Y41400D01*
Y43000D02*X111887Y43800D01*
X110500Y43000D02*X109113Y43800D01*
X108000Y51500D02*Y49900D01*
Y51500D02*X109387Y52300D01*
X108000Y51500D02*X106613Y52300D01*
X110500Y51500D02*Y49900D01*
Y51500D02*X111887Y52300D01*
X110500Y51500D02*X109113Y52300D01*
X74500Y51500D02*Y49900D01*
Y51500D02*X75887Y52300D01*
X74500Y51500D02*X73113Y52300D01*
X77000Y51500D02*Y49900D01*
Y51500D02*X78387Y52300D01*
X77000Y51500D02*X75613Y52300D01*
X74500Y43000D02*Y41400D01*
Y43000D02*X75887Y43800D01*
X74500Y43000D02*X73113Y43800D01*
X77000Y43000D02*Y41400D01*
Y43000D02*X78387Y43800D01*
X77000Y43000D02*X75613Y43800D01*
X110500Y39500D02*Y37900D01*
Y39500D02*X111887Y40300D01*
X110500Y39500D02*X109113Y40300D01*
X107500Y33000D02*Y31400D01*
Y33000D02*X108887Y33800D01*
X107500Y33000D02*X106113Y33800D01*
X107500Y24000D02*Y22400D01*
Y24000D02*X108887Y24800D01*
X107500Y24000D02*X106113Y24800D01*
X123000Y30000D02*Y28400D01*
Y30000D02*X124387Y30800D01*
X123000Y30000D02*X121613Y30800D01*
X123000Y27000D02*Y25400D01*
Y27000D02*X124387Y27800D01*
X123000Y27000D02*X121613Y27800D01*
X160500Y119000D02*Y117400D01*
Y119000D02*X161887Y119800D01*
X160500Y119000D02*X159113Y119800D01*
X166500Y145500D02*Y143900D01*
Y145500D02*X167887Y146300D01*
X166500Y145500D02*X165113Y146300D01*
X181500Y145500D02*Y143900D01*
Y145500D02*X182887Y146300D01*
X181500Y145500D02*X180113Y146300D01*
X139000Y84500D02*Y82900D01*
Y84500D02*X140387Y85300D01*
X139000Y84500D02*X137613Y85300D01*
X142500Y84500D02*Y82900D01*
Y84500D02*X143887Y85300D01*
X142500Y84500D02*X141113Y85300D01*
X142500Y88000D02*Y86400D01*
Y88000D02*X143887Y88800D01*
X142500Y88000D02*X141113Y88800D01*
X139000Y88000D02*Y86400D01*
Y88000D02*X140387Y88800D01*
X139000Y88000D02*X137613Y88800D01*
X139000Y91500D02*Y89900D01*
Y91500D02*X140387Y92300D01*
X139000Y91500D02*X137613Y92300D01*
X142500Y91500D02*Y89900D01*
Y91500D02*X143887Y92300D01*
X142500Y91500D02*X141113Y92300D01*
X145500Y71500D02*Y69900D01*
Y71500D02*X146887Y72300D01*
X145500Y71500D02*X144113Y72300D01*
X145500Y75000D02*Y73400D01*
Y75000D02*X146887Y75800D01*
X145500Y75000D02*X144113Y75800D01*
X145500Y78500D02*Y76900D01*
Y78500D02*X146887Y79300D01*
X145500Y78500D02*X144113Y79300D01*
X149000Y78500D02*Y76900D01*
Y78500D02*X150387Y79300D01*
X149000Y78500D02*X147613Y79300D01*
X149000Y75000D02*Y73400D01*
Y75000D02*X150387Y75800D01*
X149000Y75000D02*X147613Y75800D01*
X149000Y71500D02*Y69900D01*
Y71500D02*X150387Y72300D01*
X149000Y71500D02*X147613Y72300D01*
X48500Y14000D02*Y12400D01*
Y14000D02*X49887Y14800D01*
X48500Y14000D02*X47113Y14800D01*
X45500Y14000D02*Y12400D01*
Y14000D02*X46887Y14800D01*
X45500Y14000D02*X44113Y14800D01*
X120000Y40500D02*Y38900D01*
Y40500D02*X121387Y41300D01*
X120000Y40500D02*X118613Y41300D01*
X120000Y38000D02*Y36400D01*
Y38000D02*X121387Y38800D01*
X120000Y38000D02*X118613Y38800D01*
X51500Y37000D02*Y35400D01*
Y37000D02*X52887Y37800D01*
X51500Y37000D02*X50113Y37800D01*
X71000Y37000D02*Y35400D01*
Y37000D02*X72387Y37800D01*
X71000Y37000D02*X69613Y37800D01*
X71000Y40000D02*Y38400D01*
Y40000D02*X72387Y40800D01*
X71000Y40000D02*X69613Y40800D01*
X61500Y37000D02*Y35400D01*
Y37000D02*X62887Y37800D01*
X61500Y37000D02*X60113Y37800D01*
X61500Y40000D02*Y38400D01*
Y40000D02*X62887Y40800D01*
X61500Y40000D02*X60113Y40800D01*
X92500Y64000D02*Y62400D01*
Y64000D02*X93887Y64800D01*
X92500Y64000D02*X91113Y64800D01*
X96500Y64000D02*Y62400D01*
Y64000D02*X97887Y64800D01*
X96500Y64000D02*X95113Y64800D01*
X88500Y64000D02*Y62400D01*
Y64000D02*X89887Y64800D01*
X88500Y64000D02*X87113Y64800D01*
X92500Y96500D02*Y94900D01*
Y96500D02*X93887Y97300D01*
X92500Y96500D02*X91113Y97300D01*
X96500Y96500D02*Y94900D01*
Y96500D02*X97887Y97300D01*
X96500Y96500D02*X95113Y97300D01*
X100500Y96500D02*Y94900D01*
Y96500D02*X101887Y97300D01*
X100500Y96500D02*X99113Y97300D01*
X104500Y96500D02*Y94900D01*
Y96500D02*X105887Y97300D01*
X104500Y96500D02*X103113Y97300D01*
X108500Y96500D02*Y94900D01*
Y96500D02*X109887Y97300D01*
X108500Y96500D02*X107113Y97300D01*
X112500Y96500D02*Y94900D01*
Y96500D02*X113887Y97300D01*
X112500Y96500D02*X111113Y97300D01*
X116500Y96500D02*Y94900D01*
Y96500D02*X117887Y97300D01*
X116500Y96500D02*X115113Y97300D01*
X120500Y96500D02*Y94900D01*
Y96500D02*X121887Y97300D01*
X120500Y96500D02*X119113Y97300D01*
X124500Y96500D02*Y94900D01*
Y96500D02*X125887Y97300D01*
X124500Y96500D02*X123113Y97300D01*
X128500Y96500D02*Y94900D01*
Y96500D02*X129887Y97300D01*
X128500Y96500D02*X127113Y97300D01*
X132500Y96500D02*Y94900D01*
Y96500D02*X133887Y97300D01*
X132500Y96500D02*X131113Y97300D01*
X136500Y96500D02*Y94900D01*
Y96500D02*X137887Y97300D01*
X136500Y96500D02*X135113Y97300D01*
X140500Y96500D02*Y94900D01*
Y96500D02*X141887Y97300D01*
X140500Y96500D02*X139113Y97300D01*
X144500Y96500D02*Y94900D01*
Y96500D02*X145887Y97300D01*
X144500Y96500D02*X143113Y97300D01*
X88500Y96500D02*Y94900D01*
Y96500D02*X89887Y97300D01*
X88500Y96500D02*X87113Y97300D01*
X84500Y96500D02*Y94900D01*
Y96500D02*X85887Y97300D01*
X84500Y96500D02*X83113Y97300D01*
X80500Y96500D02*Y94900D01*
Y96500D02*X81887Y97300D01*
X80500Y96500D02*X79113Y97300D01*
X76500Y96500D02*Y94900D01*
Y96500D02*X77887Y97300D01*
X76500Y96500D02*X75113Y97300D01*
X72500Y96500D02*Y94900D01*
Y96500D02*X73887Y97300D01*
X72500Y96500D02*X71113Y97300D01*
X68500Y96500D02*Y94900D01*
Y96500D02*X69887Y97300D01*
X68500Y96500D02*X67113Y97300D01*
X64500Y96500D02*Y94900D01*
Y96500D02*X65887Y97300D01*
X64500Y96500D02*X63113Y97300D01*
X60500Y96500D02*Y94900D01*
Y96500D02*X61887Y97300D01*
X60500Y96500D02*X59113Y97300D01*
X56500Y96500D02*Y94900D01*
Y96500D02*X57887Y97300D01*
X56500Y96500D02*X55113Y97300D01*
X52500Y96500D02*Y94900D01*
Y96500D02*X53887Y97300D01*
X52500Y96500D02*X51113Y97300D01*
X48500Y96500D02*Y94900D01*
Y96500D02*X49887Y97300D01*
X48500Y96500D02*X47113Y97300D01*
X44500Y96500D02*Y94900D01*
Y96500D02*X45887Y97300D01*
X44500Y96500D02*X43113Y97300D01*
X40500Y96500D02*Y94900D01*
Y96500D02*X41887Y97300D01*
X40500Y96500D02*X39113Y97300D01*
X146000Y84500D02*Y82900D01*
Y84500D02*X147387Y85300D01*
X146000Y84500D02*X144613Y85300D01*
X146000Y88000D02*Y86400D01*
Y88000D02*X147387Y88800D01*
X146000Y88000D02*X144613Y88800D01*
X146000Y91500D02*Y89900D01*
Y91500D02*X147387Y92300D01*
X146000Y91500D02*X144613Y92300D01*
X149500Y84500D02*Y82900D01*
Y84500D02*X150887Y85300D01*
X149500Y84500D02*X148113Y85300D01*
X149500Y88000D02*Y86400D01*
Y88000D02*X150887Y88800D01*
X149500Y88000D02*X148113Y88800D01*
X153000Y84500D02*Y82900D01*
Y84500D02*X154387Y85300D01*
X153000Y84500D02*X151613Y85300D01*
X153000Y88000D02*Y86400D01*
Y88000D02*X154387Y88800D01*
X153000Y88000D02*X151613Y88800D01*
X92500Y92500D02*Y90900D01*
Y92500D02*X93887Y93300D01*
X92500Y92500D02*X91113Y93300D01*
X92500Y88500D02*Y86900D01*
Y88500D02*X93887Y89300D01*
X92500Y88500D02*X91113Y89300D01*
X92500Y84500D02*Y82900D01*
Y84500D02*X93887Y85300D01*
X92500Y84500D02*X91113Y85300D01*
X92500Y80500D02*Y78900D01*
Y80500D02*X93887Y81300D01*
X92500Y80500D02*X91113Y81300D01*
X92500Y76500D02*Y74900D01*
Y76500D02*X93887Y77300D01*
X92500Y76500D02*X91113Y77300D01*
X92500Y72500D02*Y70900D01*
Y72500D02*X93887Y73300D01*
X92500Y72500D02*X91113Y73300D01*
X92500Y68500D02*Y66900D01*
Y68500D02*X93887Y69300D01*
X92500Y68500D02*X91113Y69300D01*
X84500Y66000D02*Y64400D01*
Y66000D02*X85887Y66800D01*
X84500Y66000D02*X83113Y66800D01*
X107000Y61134D02*Y59534D01*
Y61134D02*X108387Y61934D01*
X107000Y61134D02*X105613Y61934D01*
X72500Y66000D02*Y64400D01*
Y66000D02*X73887Y66800D01*
X72500Y66000D02*X71113Y66800D01*
X79500Y66000D02*Y64400D01*
Y66000D02*X80887Y66800D01*
X79500Y66000D02*X78113Y66800D01*
X76000Y66000D02*Y64400D01*
Y66000D02*X77387Y66800D01*
X76000Y66000D02*X74613Y66800D01*
X100500Y66000D02*Y64400D01*
Y66000D02*X101887Y66800D01*
X100500Y66000D02*X99113Y66800D01*
X112500Y66000D02*Y64400D01*
Y66000D02*X113887Y66800D01*
X112500Y66000D02*X111113Y66800D01*
X105500Y66000D02*Y64400D01*
Y66000D02*X106887Y66800D01*
X105500Y66000D02*X104113Y66800D01*
X109000Y66000D02*Y64400D01*
Y66000D02*X110387Y66800D01*
X109000Y66000D02*X107613Y66800D01*
X74000Y38500D02*Y36900D01*
Y38500D02*X75387Y39300D01*
X74000Y38500D02*X72613Y39300D01*
X77000Y38500D02*Y36900D01*
Y38500D02*X78387Y39300D01*
X77000Y38500D02*X75613Y39300D01*
X15000Y240250D02*Y238650D01*
Y240250D02*X16387Y241050D01*
X15000Y240250D02*X13613Y241050D01*
X135000Y242500D02*X136500Y239500D01*
X138000Y242500D01*
X136500Y239500D02*Y236500D01*
X139800Y239800D02*X142050D01*
X139800Y236500D02*X142800D01*
X139800Y242500D02*Y236500D01*
Y242500D02*X142800D01*
X147600D02*X148350Y241750D01*
X145350Y242500D02*X147600D01*
X144600Y241750D02*X145350Y242500D01*
X144600Y241750D02*Y240250D01*
X145350Y239500D01*
X147600D01*
X148350Y238750D01*
Y237250D01*
X147600Y236500D02*X148350Y237250D01*
X145350Y236500D02*X147600D01*
X144600Y237250D02*X145350Y236500D01*
X98750D02*X101000Y239500D01*
Y241750D02*Y239500D01*
X100250Y242500D02*X101000Y241750D01*
X98750Y242500D02*X100250D01*
X98000Y241750D02*X98750Y242500D01*
X98000Y241750D02*Y240250D01*
X98750Y239500D01*
X101000D01*
X102800Y237250D02*X103550Y236500D01*
X102800Y238450D02*Y237250D01*
Y238450D02*X103850Y239500D01*
X104750D01*
X105800Y238450D01*
Y237250D01*
X105050Y236500D02*X105800Y237250D01*
X103550Y236500D02*X105050D01*
X102800Y240550D02*X103850Y239500D01*
X102800Y241750D02*Y240550D01*
Y241750D02*X103550Y242500D01*
X105050D01*
X105800Y241750D01*
Y240550D01*
X104750Y239500D02*X105800Y240550D01*
X45000Y237250D02*X45750Y236500D01*
X45000Y241750D02*Y237250D01*
Y241750D02*X45750Y242500D01*
X47250D01*
X48000Y241750D01*
Y237250D01*
X47250Y236500D02*X48000Y237250D01*
X45750Y236500D02*X47250D01*
X45000Y238000D02*X48000Y241000D01*
X49800Y236500D02*X50550D01*
X52350Y237250D02*X53100Y236500D01*
X52350Y241750D02*Y237250D01*
Y241750D02*X53100Y242500D01*
X54600D01*
X55350Y241750D01*
Y237250D01*
X54600Y236500D02*X55350Y237250D01*
X53100Y236500D02*X54600D01*
X52350Y238000D02*X55350Y241000D01*
X57150Y241300D02*X58350Y242500D01*
Y236500D01*
X57150D02*X59400D01*
X61200Y241750D02*X61950Y242500D01*
X64200D01*
X64950Y241750D01*
Y240250D01*
X61200Y236500D02*X64950Y240250D01*
X61200Y236500D02*X64950D01*
X3000Y257500D02*X3750Y256750D01*
X750Y257500D02*X3000D01*
X0Y256750D02*X750Y257500D01*
X0Y256750D02*Y255250D01*
X750Y254500D01*
X3000D01*
X3750Y253750D01*
Y252250D01*
X3000Y251500D02*X3750Y252250D01*
X750Y251500D02*X3000D01*
X0Y252250D02*X750Y251500D01*
X5550Y254500D02*Y252250D01*
X6300Y251500D01*
X8550Y254500D02*Y250000D01*
X7800Y249250D02*X8550Y250000D01*
X6300Y249250D02*X7800D01*
X5550Y250000D02*X6300Y249250D01*
Y251500D02*X7800D01*
X8550Y252250D01*
X11100Y253750D02*Y251500D01*
Y253750D02*X11850Y254500D01*
X12600D01*
X13350Y253750D01*
Y251500D01*
Y253750D02*X14100Y254500D01*
X14850D01*
X15600Y253750D01*
Y251500D01*
X10350Y254500D02*X11100Y253750D01*
X17400Y257500D02*Y251500D01*
Y252250D02*X18150Y251500D01*
X19650D01*
X20400Y252250D01*
Y253750D02*Y252250D01*
X19650Y254500D02*X20400Y253750D01*
X18150Y254500D02*X19650D01*
X17400Y253750D02*X18150Y254500D01*
X22200Y253750D02*Y252250D01*
Y253750D02*X22950Y254500D01*
X24450D01*
X25200Y253750D01*
Y252250D01*
X24450Y251500D02*X25200Y252250D01*
X22950Y251500D02*X24450D01*
X22200Y252250D02*X22950Y251500D01*
X27000Y257500D02*Y252250D01*
X27750Y251500D01*
X0Y248250D02*X29250D01*
X41750Y257500D02*Y251500D01*
X43700Y257500D02*X44750Y256450D01*
Y252550D01*
X43700Y251500D02*X44750Y252550D01*
X41000Y251500D02*X43700D01*
X41000Y257500D02*X43700D01*
G54D78*X46550Y256000D02*Y255850D01*
G54D77*Y253750D02*Y251500D01*
X50300Y254500D02*X51050Y253750D01*
X48800Y254500D02*X50300D01*
X48050Y253750D02*X48800Y254500D01*
X48050Y253750D02*Y252250D01*
X48800Y251500D01*
X51050Y254500D02*Y252250D01*
X51800Y251500D01*
X48800D02*X50300D01*
X51050Y252250D01*
X54350Y253750D02*Y251500D01*
Y253750D02*X55100Y254500D01*
X55850D01*
X56600Y253750D01*
Y251500D01*
Y253750D02*X57350Y254500D01*
X58100D01*
X58850Y253750D01*
Y251500D01*
X53600Y254500D02*X54350Y253750D01*
X60650Y251500D02*X61400D01*
X65900Y252250D02*X66650Y251500D01*
X65900Y256750D02*X66650Y257500D01*
X65900Y256750D02*Y252250D01*
X68450Y257500D02*X69950D01*
X69200D02*Y251500D01*
X68450D02*X69950D01*
X72500Y253750D02*Y251500D01*
Y253750D02*X73250Y254500D01*
X74000D01*
X74750Y253750D01*
Y251500D01*
X71750Y254500D02*X72500Y253750D01*
X77300Y254500D02*X79550D01*
X76550Y253750D02*X77300Y254500D01*
X76550Y253750D02*Y252250D01*
X77300Y251500D01*
X79550D01*
X81350Y257500D02*Y251500D01*
Y253750D02*X82100Y254500D01*
X83600D01*
X84350Y253750D01*
Y251500D01*
X86150Y257500D02*X86900Y256750D01*
Y252250D01*
X86150Y251500D02*X86900Y252250D01*
X41000Y248250D02*X88700D01*
X96050Y251500D02*X98000D01*
X95000Y252550D02*X96050Y251500D01*
X95000Y256450D02*Y252550D01*
Y256450D02*X96050Y257500D01*
X98000D01*
X99800Y253750D02*Y252250D01*
Y253750D02*X100550Y254500D01*
X102050D01*
X102800Y253750D01*
Y252250D01*
X102050Y251500D02*X102800Y252250D01*
X100550Y251500D02*X102050D01*
X99800Y252250D02*X100550Y251500D01*
X104600Y254500D02*Y252250D01*
X105350Y251500D01*
X106850D01*
X107600Y252250D01*
Y254500D02*Y252250D01*
X110150Y253750D02*Y251500D01*
Y253750D02*X110900Y254500D01*
X111650D01*
X112400Y253750D01*
Y251500D01*
X109400Y254500D02*X110150Y253750D01*
X114950Y257500D02*Y252250D01*
X115700Y251500D01*
X114200Y255250D02*X115700D01*
X95000Y248250D02*X117200D01*
X130750Y257500D02*Y251500D01*
X130000Y257500D02*X133000D01*
X133750Y256750D01*
Y255250D01*
X133000Y254500D02*X133750Y255250D01*
X130750Y254500D02*X133000D01*
X135550Y257500D02*Y252250D01*
X136300Y251500D01*
X140050Y254500D02*X140800Y253750D01*
X138550Y254500D02*X140050D01*
X137800Y253750D02*X138550Y254500D01*
X137800Y253750D02*Y252250D01*
X138550Y251500D01*
X140800Y254500D02*Y252250D01*
X141550Y251500D01*
X138550D02*X140050D01*
X140800Y252250D01*
X144100Y257500D02*Y252250D01*
X144850Y251500D01*
X143350Y255250D02*X144850D01*
X147100Y251500D02*X149350D01*
X146350Y252250D02*X147100Y251500D01*
X146350Y253750D02*Y252250D01*
Y253750D02*X147100Y254500D01*
X148600D01*
X149350Y253750D01*
X146350Y253000D02*X149350D01*
Y253750D02*Y253000D01*
X154150Y257500D02*Y251500D01*
X153400D02*X154150Y252250D01*
X151900Y251500D02*X153400D01*
X151150Y252250D02*X151900Y251500D01*
X151150Y253750D02*Y252250D01*
Y253750D02*X151900Y254500D01*
X153400D01*
X154150Y253750D01*
X157450Y254500D02*Y253750D01*
Y252250D02*Y251500D01*
X155950Y256750D02*Y256000D01*
Y256750D02*X156700Y257500D01*
X158200D01*
X158950Y256750D01*
Y256000D01*
X157450Y254500D02*X158950Y256000D01*
X130000Y248250D02*X160750D01*
X0Y272500D02*X3000D01*
X1500D02*Y266500D01*
X4800Y272500D02*Y266500D01*
Y268750D02*X5550Y269500D01*
X7050D01*
X7800Y268750D01*
Y266500D01*
X10350D02*X12600D01*
X9600Y267250D02*X10350Y266500D01*
X9600Y268750D02*Y267250D01*
Y268750D02*X10350Y269500D01*
X11850D01*
X12600Y268750D01*
X9600Y268000D02*X12600D01*
Y268750D02*Y268000D01*
X15150Y268750D02*Y266500D01*
Y268750D02*X15900Y269500D01*
X17400D01*
X14400D02*X15150Y268750D01*
X19950Y266500D02*X22200D01*
X19200Y267250D02*X19950Y266500D01*
X19200Y268750D02*Y267250D01*
Y268750D02*X19950Y269500D01*
X21450D01*
X22200Y268750D01*
X19200Y268000D02*X22200D01*
Y268750D02*Y268000D01*
X28950Y269500D02*X29700Y268750D01*
X27450Y269500D02*X28950D01*
X26700Y268750D02*X27450Y269500D01*
X26700Y268750D02*Y267250D01*
X27450Y266500D01*
X29700Y269500D02*Y267250D01*
X30450Y266500D01*
X27450D02*X28950D01*
X29700Y267250D01*
X33000Y268750D02*Y266500D01*
Y268750D02*X33750Y269500D01*
X35250D01*
X32250D02*X33000Y268750D01*
X37800Y266500D02*X40050D01*
X37050Y267250D02*X37800Y266500D01*
X37050Y268750D02*Y267250D01*
Y268750D02*X37800Y269500D01*
X39300D01*
X40050Y268750D01*
X37050Y268000D02*X40050D01*
Y268750D02*Y268000D01*
X44550Y271750D02*X45300Y272500D01*
X46800D01*
X47550Y271750D01*
X46800Y266500D02*X47550Y267250D01*
X45300Y266500D02*X46800D01*
X44550Y267250D02*X45300Y266500D01*
Y269800D02*X46800D01*
X47550Y271750D02*Y270550D01*
Y269050D02*Y267250D01*
Y269050D02*X46800Y269800D01*
X47550Y270550D02*X46800Y269800D01*
X55050Y272500D02*Y266500D01*
X54300D02*X55050Y267250D01*
X52800Y266500D02*X54300D01*
X52050Y267250D02*X52800Y266500D01*
X52050Y268750D02*Y267250D01*
Y268750D02*X52800Y269500D01*
X54300D01*
X55050Y268750D01*
G54D78*X56850Y271000D02*Y270850D01*
G54D77*Y268750D02*Y266500D01*
X59100Y271750D02*Y266500D01*
Y271750D02*X59850Y272500D01*
X60600D01*
X58350Y269500D02*X59850D01*
X62850Y271750D02*Y266500D01*
Y271750D02*X63600Y272500D01*
X64350D01*
X62100Y269500D02*X63600D01*
X66600Y266500D02*X68850D01*
X65850Y267250D02*X66600Y266500D01*
X65850Y268750D02*Y267250D01*
Y268750D02*X66600Y269500D01*
X68100D01*
X68850Y268750D01*
X65850Y268000D02*X68850D01*
Y268750D02*Y268000D01*
X71400Y268750D02*Y266500D01*
Y268750D02*X72150Y269500D01*
X73650D01*
X70650D02*X71400Y268750D01*
X76200Y266500D02*X78450D01*
X75450Y267250D02*X76200Y266500D01*
X75450Y268750D02*Y267250D01*
Y268750D02*X76200Y269500D01*
X77700D01*
X78450Y268750D01*
X75450Y268000D02*X78450D01*
Y268750D02*Y268000D01*
X81000Y268750D02*Y266500D01*
Y268750D02*X81750Y269500D01*
X82500D01*
X83250Y268750D01*
Y266500D01*
X80250Y269500D02*X81000Y268750D01*
X85800Y272500D02*Y267250D01*
X86550Y266500D01*
X85050Y270250D02*X86550D01*
X93750Y272500D02*Y266500D01*
X93000D02*X93750Y267250D01*
X91500Y266500D02*X93000D01*
X90750Y267250D02*X91500Y266500D01*
X90750Y268750D02*Y267250D01*
Y268750D02*X91500Y269500D01*
X93000D01*
X93750Y268750D01*
X96300D02*Y266500D01*
Y268750D02*X97050Y269500D01*
X98550D01*
X95550D02*X96300Y268750D01*
G54D78*X100350Y271000D02*Y270850D01*
G54D77*Y268750D02*Y266500D01*
X101850Y272500D02*Y267250D01*
X102600Y266500D01*
X104100Y272500D02*Y267250D01*
X104850Y266500D01*
X109800D02*X112050D01*
X112800Y267250D01*
X112050Y268000D02*X112800Y267250D01*
X109800Y268000D02*X112050D01*
X109050Y268750D02*X109800Y268000D01*
X109050Y268750D02*X109800Y269500D01*
X112050D01*
X112800Y268750D01*
X109050Y267250D02*X109800Y266500D01*
G54D78*X114600Y271000D02*Y270850D01*
G54D77*Y268750D02*Y266500D01*
X116100Y269500D02*X119100D01*
X116100Y266500D02*X119100Y269500D01*
X116100Y266500D02*X119100D01*
X121650D02*X123900D01*
X120900Y267250D02*X121650Y266500D01*
X120900Y268750D02*Y267250D01*
Y268750D02*X121650Y269500D01*
X123150D01*
X123900Y268750D01*
X120900Y268000D02*X123900D01*
Y268750D02*Y268000D01*
X126450Y266500D02*X128700D01*
X129450Y267250D01*
X128700Y268000D02*X129450Y267250D01*
X126450Y268000D02*X128700D01*
X125700Y268750D02*X126450Y268000D01*
X125700Y268750D02*X126450Y269500D01*
X128700D01*
X129450Y268750D01*
X125700Y267250D02*X126450Y266500D01*
X133950Y269500D02*Y267250D01*
X134700Y266500D01*
X136200D01*
X136950Y267250D01*
Y269500D02*Y267250D01*
X139500Y266500D02*X141750D01*
X142500Y267250D01*
X141750Y268000D02*X142500Y267250D01*
X139500Y268000D02*X141750D01*
X138750Y268750D02*X139500Y268000D01*
X138750Y268750D02*X139500Y269500D01*
X141750D01*
X142500Y268750D01*
X138750Y267250D02*X139500Y266500D01*
X145050D02*X147300D01*
X144300Y267250D02*X145050Y266500D01*
X144300Y268750D02*Y267250D01*
Y268750D02*X145050Y269500D01*
X146550D01*
X147300Y268750D01*
X144300Y268000D02*X147300D01*
Y268750D02*Y268000D01*
X152100Y272500D02*Y266500D01*
X151350D02*X152100Y267250D01*
X149850Y266500D02*X151350D01*
X149100Y267250D02*X149850Y266500D01*
X149100Y268750D02*Y267250D01*
Y268750D02*X149850Y269500D01*
X151350D01*
X152100Y268750D01*
G54D78*X156600Y271000D02*Y270850D01*
G54D77*Y268750D02*Y266500D01*
X158850Y268750D02*Y266500D01*
Y268750D02*X159600Y269500D01*
X160350D01*
X161100Y268750D01*
Y266500D01*
X158100Y269500D02*X158850Y268750D01*
X166350Y272500D02*Y267250D01*
X167100Y266500D01*
X165600Y270250D02*X167100D01*
X168600Y272500D02*Y266500D01*
Y268750D02*X169350Y269500D01*
X170850D01*
X171600Y268750D01*
Y266500D01*
G54D78*X173400Y271000D02*Y270850D01*
G54D77*Y268750D02*Y266500D01*
X175650D02*X177900D01*
X178650Y267250D01*
X177900Y268000D02*X178650Y267250D01*
X175650Y268000D02*X177900D01*
X174900Y268750D02*X175650Y268000D01*
X174900Y268750D02*X175650Y269500D01*
X177900D01*
X178650Y268750D01*
X174900Y267250D02*X175650Y266500D01*
X183150Y272500D02*Y267250D01*
X183900Y266500D01*
X187650Y269500D02*X188400Y268750D01*
X186150Y269500D02*X187650D01*
X185400Y268750D02*X186150Y269500D01*
X185400Y268750D02*Y267250D01*
X186150Y266500D01*
X188400Y269500D02*Y267250D01*
X189150Y266500D01*
X186150D02*X187650D01*
X188400Y267250D01*
X190950Y269500D02*Y267250D01*
X191700Y266500D01*
X193950Y269500D02*Y265000D01*
X193200Y264250D02*X193950Y265000D01*
X191700Y264250D02*X193200D01*
X190950Y265000D02*X191700Y264250D01*
Y266500D02*X193200D01*
X193950Y267250D01*
X195750Y268750D02*Y267250D01*
Y268750D02*X196500Y269500D01*
X198000D01*
X198750Y268750D01*
Y267250D01*
X198000Y266500D02*X198750Y267250D01*
X196500Y266500D02*X198000D01*
X195750Y267250D02*X196500Y266500D01*
X200550Y269500D02*Y267250D01*
X201300Y266500D01*
X202800D01*
X203550Y267250D01*
Y269500D02*Y267250D01*
X206100Y272500D02*Y267250D01*
X206850Y266500D01*
X205350Y270250D02*X206850D01*
X208350Y265000D02*X209850Y266500D01*
X214350Y271300D02*X215550Y272500D01*
Y266500D01*
X214350D02*X216600D01*
X218400Y267250D02*X219150Y266500D01*
X218400Y271750D02*Y267250D01*
Y271750D02*X219150Y272500D01*
X220650D01*
X221400Y271750D01*
Y267250D01*
X220650Y266500D02*X221400Y267250D01*
X219150Y266500D02*X220650D01*
X218400Y268000D02*X221400Y271000D01*
X223200Y267250D02*X223950Y266500D01*
X223200Y268450D02*Y267250D01*
Y268450D02*X224250Y269500D01*
X225150D01*
X226200Y268450D01*
Y267250D01*
X225450Y266500D02*X226200Y267250D01*
X223950Y266500D02*X225450D01*
X223200Y270550D02*X224250Y269500D01*
X223200Y271750D02*Y270550D01*
Y271750D02*X223950Y272500D01*
X225450D01*
X226200Y271750D01*
Y270550D01*
X225150Y269500D02*X226200Y270550D01*
X230700Y272500D02*Y266500D01*
Y268750D02*X231450Y269500D01*
X232950D01*
X233700Y268750D01*
Y266500D01*
X235500Y268750D02*Y267250D01*
Y268750D02*X236250Y269500D01*
X237750D01*
X238500Y268750D01*
Y267250D01*
X237750Y266500D02*X238500Y267250D01*
X236250Y266500D02*X237750D01*
X235500Y267250D02*X236250Y266500D01*
X240300Y272500D02*Y267250D01*
X241050Y266500D01*
X243300D02*X245550D01*
X242550Y267250D02*X243300Y266500D01*
X242550Y268750D02*Y267250D01*
Y268750D02*X243300Y269500D01*
X244800D01*
X245550Y268750D01*
X242550Y268000D02*X245550D01*
Y268750D02*Y268000D01*
X248100Y266500D02*X250350D01*
X251100Y267250D01*
X250350Y268000D02*X251100Y267250D01*
X248100Y268000D02*X250350D01*
X247350Y268750D02*X248100Y268000D01*
X247350Y268750D02*X248100Y269500D01*
X250350D01*
X251100Y268750D01*
X247350Y267250D02*X248100Y266500D01*
X256350Y272500D02*Y267250D01*
X257100Y266500D01*
X255600Y270250D02*X257100D01*
X258600Y268750D02*Y267250D01*
Y268750D02*X259350Y269500D01*
X260850D01*
X261600Y268750D01*
Y267250D01*
X260850Y266500D02*X261600Y267250D01*
X259350Y266500D02*X260850D01*
X258600Y267250D02*X259350Y266500D01*
X264150Y272500D02*Y267250D01*
X264900Y266500D01*
X263400Y270250D02*X264900D01*
X268650Y269500D02*X269400Y268750D01*
X267150Y269500D02*X268650D01*
X266400Y268750D02*X267150Y269500D01*
X266400Y268750D02*Y267250D01*
X267150Y266500D01*
X269400Y269500D02*Y267250D01*
X270150Y266500D01*
X267150D02*X268650D01*
X269400Y267250D01*
X271950Y272500D02*Y267250D01*
X272700Y266500D01*
G54D79*X0Y184000D02*X200000D01*
Y0D01*
X0D01*
Y184000D01*
G54D77*X13675Y-9500D02*X16675D01*
X17425Y-8750D01*
Y-6950D02*Y-8750D01*
X16675Y-6200D02*X17425Y-6950D01*
X14425Y-6200D02*X16675D01*
X14425Y-3500D02*Y-9500D01*
X13675Y-3500D02*X16675D01*
X17425Y-4250D01*
Y-5450D01*
X16675Y-6200D02*X17425Y-5450D01*
X19225Y-7250D02*Y-8750D01*
Y-7250D02*X19975Y-6500D01*
X21475D01*
X22225Y-7250D01*
Y-8750D01*
X21475Y-9500D02*X22225Y-8750D01*
X19975Y-9500D02*X21475D01*
X19225Y-8750D02*X19975Y-9500D01*
X26275Y-6500D02*X27025Y-7250D01*
X24775Y-6500D02*X26275D01*
X24025Y-7250D02*X24775Y-6500D01*
X24025Y-7250D02*Y-8750D01*
X24775Y-9500D01*
X27025Y-6500D02*Y-8750D01*
X27775Y-9500D01*
X24775D02*X26275D01*
X27025Y-8750D01*
X30325Y-7250D02*Y-9500D01*
Y-7250D02*X31075Y-6500D01*
X32575D01*
X29575D02*X30325Y-7250D01*
X37375Y-3500D02*Y-9500D01*
X36625D02*X37375Y-8750D01*
X35125Y-9500D02*X36625D01*
X34375Y-8750D02*X35125Y-9500D01*
X34375Y-7250D02*Y-8750D01*
Y-7250D02*X35125Y-6500D01*
X36625D01*
X37375Y-7250D01*
X41875D02*Y-8750D01*
Y-7250D02*X42625Y-6500D01*
X44125D01*
X44875Y-7250D01*
Y-8750D01*
X44125Y-9500D02*X44875Y-8750D01*
X42625Y-9500D02*X44125D01*
X41875Y-8750D02*X42625Y-9500D01*
X46675Y-6500D02*Y-8750D01*
X47425Y-9500D01*
X48925D01*
X49675Y-8750D01*
Y-6500D02*Y-8750D01*
X52225Y-3500D02*Y-8750D01*
X52975Y-9500D01*
X51475Y-5750D02*X52975D01*
X54475Y-3500D02*Y-8750D01*
X55225Y-9500D01*
G54D78*X56725Y-5000D02*Y-5150D01*
G54D77*Y-7250D02*Y-9500D01*
X58975Y-7250D02*Y-9500D01*
Y-7250D02*X59725Y-6500D01*
X60475D01*
X61225Y-7250D01*
Y-9500D01*
X58225Y-6500D02*X58975Y-7250D01*
X63775Y-9500D02*X66025D01*
X63025Y-8750D02*X63775Y-9500D01*
X63025Y-7250D02*Y-8750D01*
Y-7250D02*X63775Y-6500D01*
X65275D01*
X66025Y-7250D01*
X63025Y-8000D02*X66025D01*
Y-7250D02*Y-8000D01*
G54D78*X70525Y-5000D02*Y-5150D01*
G54D77*Y-7250D02*Y-9500D01*
X72775D02*X75025D01*
X75775Y-8750D01*
X75025Y-8000D02*X75775Y-8750D01*
X72775Y-8000D02*X75025D01*
X72025Y-7250D02*X72775Y-8000D01*
X72025Y-7250D02*X72775Y-6500D01*
X75025D01*
X75775Y-7250D01*
X72025Y-8750D02*X72775Y-9500D01*
X81025Y-3500D02*Y-8750D01*
X81775Y-9500D01*
X80275Y-5750D02*X81775D01*
X83275Y-3500D02*Y-9500D01*
Y-7250D02*X84025Y-6500D01*
X85525D01*
X86275Y-7250D01*
Y-9500D01*
X88825D02*X91075D01*
X88075Y-8750D02*X88825Y-9500D01*
X88075Y-7250D02*Y-8750D01*
Y-7250D02*X88825Y-6500D01*
X90325D01*
X91075Y-7250D01*
X88075Y-8000D02*X91075D01*
Y-7250D02*Y-8000D01*
X96325Y-6500D02*X98575D01*
X95575Y-7250D02*X96325Y-6500D01*
X95575Y-7250D02*Y-8750D01*
X96325Y-9500D01*
X98575D01*
X101125D02*X103375D01*
X100375Y-8750D02*X101125Y-9500D01*
X100375Y-7250D02*Y-8750D01*
Y-7250D02*X101125Y-6500D01*
X102625D01*
X103375Y-7250D01*
X100375Y-8000D02*X103375D01*
Y-7250D02*Y-8000D01*
X105925Y-7250D02*Y-9500D01*
Y-7250D02*X106675Y-6500D01*
X107425D01*
X108175Y-7250D01*
Y-9500D01*
X105175Y-6500D02*X105925Y-7250D01*
X110725Y-3500D02*Y-8750D01*
X111475Y-9500D01*
X109975Y-5750D02*X111475D01*
X113725Y-9500D02*X115975D01*
X112975Y-8750D02*X113725Y-9500D01*
X112975Y-7250D02*Y-8750D01*
Y-7250D02*X113725Y-6500D01*
X115225D01*
X115975Y-7250D01*
X112975Y-8000D02*X115975D01*
Y-7250D02*Y-8000D01*
X118525Y-7250D02*Y-9500D01*
Y-7250D02*X119275Y-6500D01*
X120775D01*
X117775D02*X118525Y-7250D01*
X122575Y-3500D02*Y-8750D01*
X123325Y-9500D01*
G54D78*X124825Y-5000D02*Y-5150D01*
G54D77*Y-7250D02*Y-9500D01*
X127075Y-7250D02*Y-9500D01*
Y-7250D02*X127825Y-6500D01*
X128575D01*
X129325Y-7250D01*
Y-9500D01*
X126325Y-6500D02*X127075Y-7250D01*
X131875Y-9500D02*X134125D01*
X131125Y-8750D02*X131875Y-9500D01*
X131125Y-7250D02*Y-8750D01*
Y-7250D02*X131875Y-6500D01*
X133375D01*
X134125Y-7250D01*
X131125Y-8000D02*X134125D01*
Y-7250D02*Y-8000D01*
X138625Y-7250D02*Y-8750D01*
Y-7250D02*X139375Y-6500D01*
X140875D01*
X141625Y-7250D01*
Y-8750D01*
X140875Y-9500D02*X141625Y-8750D01*
X139375Y-9500D02*X140875D01*
X138625Y-8750D02*X139375Y-9500D01*
X144175Y-4250D02*Y-9500D01*
Y-4250D02*X144925Y-3500D01*
X145675D01*
X143425Y-6500D02*X144925D01*
X150625Y-3500D02*Y-8750D01*
X151375Y-9500D01*
X149875Y-5750D02*X151375D01*
X152875Y-3500D02*Y-9500D01*
Y-7250D02*X153625Y-6500D01*
X155125D01*
X155875Y-7250D01*
Y-9500D01*
G54D78*X157675Y-5000D02*Y-5150D01*
G54D77*Y-7250D02*Y-9500D01*
X159925D02*X162175D01*
X162925Y-8750D01*
X162175Y-8000D02*X162925Y-8750D01*
X159925Y-8000D02*X162175D01*
X159175Y-7250D02*X159925Y-8000D01*
X159175Y-7250D02*X159925Y-6500D01*
X162175D01*
X162925Y-7250D01*
X159175Y-8750D02*X159925Y-9500D01*
X168175Y-7250D02*Y-11750D01*
X167425Y-6500D02*X168175Y-7250D01*
X168925Y-6500D01*
X170425D01*
X171175Y-7250D01*
Y-8750D01*
X170425Y-9500D02*X171175Y-8750D01*
X168925Y-9500D02*X170425D01*
X168175Y-8750D02*X168925Y-9500D01*
X175225Y-6500D02*X175975Y-7250D01*
X173725Y-6500D02*X175225D01*
X172975Y-7250D02*X173725Y-6500D01*
X172975Y-7250D02*Y-8750D01*
X173725Y-9500D01*
X175975Y-6500D02*Y-8750D01*
X176725Y-9500D01*
X173725D02*X175225D01*
X175975Y-8750D01*
X179275Y-3500D02*Y-8750D01*
X180025Y-9500D01*
X178525Y-5750D02*X180025D01*
X181525Y-3500D02*Y-9500D01*
Y-7250D02*X182275Y-6500D01*
X183775D01*
X184525Y-7250D01*
Y-9500D01*
X200750Y212500D02*Y206500D01*
X202700Y212500D02*X203750Y211450D01*
Y207550D01*
X202700Y206500D02*X203750Y207550D01*
X200000Y206500D02*X202700D01*
X200000Y212500D02*X202700D01*
X207800Y209500D02*X208550Y208750D01*
X206300Y209500D02*X207800D01*
X205550Y208750D02*X206300Y209500D01*
X205550Y208750D02*Y207250D01*
X206300Y206500D01*
X208550Y209500D02*Y207250D01*
X209300Y206500D01*
X206300D02*X207800D01*
X208550Y207250D01*
X211850Y212500D02*Y207250D01*
X212600Y206500D01*
X211100Y210250D02*X212600D01*
X214850Y206500D02*X217100D01*
X214100Y207250D02*X214850Y206500D01*
X214100Y208750D02*Y207250D01*
Y208750D02*X214850Y209500D01*
X216350D01*
X217100Y208750D01*
X214100Y208000D02*X217100D01*
Y208750D02*Y208000D01*
X218900Y210250D02*X219650D01*
X218900Y208750D02*X219650D01*
X224150Y212500D02*X227150D01*
X225650D02*Y206500D01*
X228950Y212500D02*Y206500D01*
Y208750D02*X229700Y209500D01*
X231200D01*
X231950Y208750D01*
Y206500D01*
X233750Y209500D02*Y207250D01*
X234500Y206500D01*
X236000D01*
X236750Y207250D01*
Y209500D02*Y207250D01*
X241250D02*X242000Y206500D01*
X241250Y211750D02*Y207250D01*
Y211750D02*X242000Y212500D01*
X243500D01*
X244250Y211750D01*
Y207250D01*
X243500Y206500D02*X244250Y207250D01*
X242000Y206500D02*X243500D01*
X241250Y208000D02*X244250Y211000D01*
X246050Y211750D02*X246800Y212500D01*
X249050D01*
X249800Y211750D01*
Y210250D01*
X246050Y206500D02*X249800Y210250D01*
X246050Y206500D02*X249800D01*
X255350Y212500D02*X256550D01*
Y207250D01*
X255800Y206500D02*X256550Y207250D01*
X255050Y206500D02*X255800D01*
X254300Y207250D02*X255050Y206500D01*
X254300Y208000D02*Y207250D01*
X258350Y209500D02*Y207250D01*
X259100Y206500D01*
X260600D01*
X261350Y207250D01*
Y209500D02*Y207250D01*
X263150Y212500D02*Y207250D01*
X263900Y206500D01*
X268100Y211750D02*X268850Y212500D01*
X271100D01*
X271850Y211750D01*
Y210250D01*
X268100Y206500D02*X271850Y210250D01*
X268100Y206500D02*X271850D01*
X273650Y207250D02*X274400Y206500D01*
X273650Y211750D02*Y207250D01*
Y211750D02*X274400Y212500D01*
X275900D01*
X276650Y211750D01*
Y207250D01*
X275900Y206500D02*X276650Y207250D01*
X274400Y206500D02*X275900D01*
X273650Y208000D02*X276650Y211000D01*
X278450Y211750D02*X279200Y212500D01*
X281450D01*
X282200Y211750D01*
Y210250D01*
X278450Y206500D02*X282200Y210250D01*
X278450Y206500D02*X282200D01*
X284000Y207250D02*X284750Y206500D01*
X284000Y211750D02*Y207250D01*
Y211750D02*X284750Y212500D01*
X286250D01*
X287000Y211750D01*
Y207250D01*
X286250Y206500D02*X287000Y207250D01*
X284750Y206500D02*X286250D01*
X284000Y208000D02*X287000Y211000D01*
X291500Y207250D02*X292250Y206500D01*
X291500Y211750D02*Y207250D01*
Y211750D02*X292250Y212500D01*
X293750D01*
X294500Y211750D01*
Y207250D01*
X293750Y206500D02*X294500Y207250D01*
X292250Y206500D02*X293750D01*
X291500Y208000D02*X294500Y211000D01*
X296300Y207250D02*X297050Y206500D01*
X296300Y208450D02*Y207250D01*
Y208450D02*X297350Y209500D01*
X298250D01*
X299300Y208450D01*
Y207250D01*
X298550Y206500D02*X299300Y207250D01*
X297050Y206500D02*X298550D01*
X296300Y210550D02*X297350Y209500D01*
X296300Y211750D02*Y210550D01*
Y211750D02*X297050Y212500D01*
X298550D01*
X299300Y211750D01*
Y210550D01*
X298250Y209500D02*X299300Y210550D01*
X301100Y210250D02*X301850D01*
X301100Y208750D02*X301850D01*
X303650Y211750D02*X304400Y212500D01*
X305900D01*
X306650Y211750D01*
X305900Y206500D02*X306650Y207250D01*
X304400Y206500D02*X305900D01*
X303650Y207250D02*X304400Y206500D01*
Y209800D02*X305900D01*
X306650Y211750D02*Y210550D01*
Y209050D02*Y207250D01*
Y209050D02*X305900Y209800D01*
X306650Y210550D02*X305900Y209800D01*
X309200Y206500D02*X312200Y212500D01*
X308450D02*X312200D01*
X314000Y210250D02*X314750D01*
X314000Y208750D02*X314750D01*
X316550D02*X319550Y212500D01*
X316550Y208750D02*X320300D01*
X319550Y212500D02*Y206500D01*
X322100Y211750D02*X322850Y212500D01*
X325100D01*
X325850Y211750D01*
Y210250D01*
X322100Y206500D02*X325850Y210250D01*
X322100Y206500D02*X325850D01*
X331100Y212500D02*Y206500D01*
X330350Y212500D02*X333350D01*
X334100Y211750D01*
Y210250D01*
X333350Y209500D02*X334100Y210250D01*
X331100Y209500D02*X333350D01*
X335900Y212500D02*Y206500D01*
Y212500D02*X338150Y209500D01*
X340400Y212500D01*
Y206500D01*
X347900Y212500D02*X348650Y211750D01*
X345650Y212500D02*X347900D01*
X344900Y211750D02*X345650Y212500D01*
X344900Y211750D02*Y207250D01*
X345650Y206500D01*
X347900D01*
X348650Y207250D01*
Y208750D02*Y207250D01*
X347900Y209500D02*X348650Y208750D01*
X346400Y209500D02*X347900D01*
X350450Y212500D02*Y206500D01*
Y212500D02*X352700Y209500D01*
X354950Y212500D01*
Y206500D01*
X356750Y212500D02*X359750D01*
X358250D02*Y206500D01*
X364250Y212500D02*Y207250D01*
X365000Y206500D01*
X366500D01*
X367250Y207250D01*
Y212500D02*Y207250D01*
X369050Y212500D02*X372050D01*
X370550D02*Y206500D01*
X374900D02*X376850D01*
X373850Y207550D02*X374900Y206500D01*
X373850Y211450D02*Y207550D01*
Y211450D02*X374900Y212500D01*
X376850D01*
X200000Y226000D02*Y221500D01*
Y226000D02*X201050Y227500D01*
X202700D01*
X203750Y226000D01*
Y221500D01*
X200000Y224500D02*X203750D01*
X205550D02*Y222250D01*
X206300Y221500D01*
X207800D01*
X208550Y222250D01*
Y224500D02*Y222250D01*
X211100Y227500D02*Y222250D01*
X211850Y221500D01*
X210350Y225250D02*X211850D01*
X213350Y227500D02*Y221500D01*
Y223750D02*X214100Y224500D01*
X215600D01*
X216350Y223750D01*
Y221500D01*
X218150Y223750D02*Y222250D01*
Y223750D02*X218900Y224500D01*
X220400D01*
X221150Y223750D01*
Y222250D01*
X220400Y221500D02*X221150Y222250D01*
X218900Y221500D02*X220400D01*
X218150Y222250D02*X218900Y221500D01*
X223700Y223750D02*Y221500D01*
Y223750D02*X224450Y224500D01*
X225950D01*
X222950D02*X223700Y223750D01*
X227750Y225250D02*X228500D01*
X227750Y223750D02*X228500D01*
X233000Y227500D02*Y221500D01*
Y227500D02*X235250Y224500D01*
X237500Y227500D01*
Y221500D01*
G54D78*X239300Y226000D02*Y225850D01*
G54D77*Y223750D02*Y221500D01*
X241550Y224500D02*X243800D01*
X240800Y223750D02*X241550Y224500D01*
X240800Y223750D02*Y222250D01*
X241550Y221500D01*
X243800D01*
X245600Y227500D02*Y221500D01*
Y223750D02*X246350Y224500D01*
X247850D01*
X248600Y223750D01*
Y221500D01*
X252650Y224500D02*X253400Y223750D01*
X251150Y224500D02*X252650D01*
X250400Y223750D02*X251150Y224500D01*
X250400Y223750D02*Y222250D01*
X251150Y221500D01*
X253400Y224500D02*Y222250D01*
X254150Y221500D01*
X251150D02*X252650D01*
X253400Y222250D01*
X256700Y221500D02*X258950D01*
X255950Y222250D02*X256700Y221500D01*
X255950Y223750D02*Y222250D01*
Y223750D02*X256700Y224500D01*
X258200D01*
X258950Y223750D01*
X255950Y223000D02*X258950D01*
Y223750D02*Y223000D01*
X260750Y227500D02*Y222250D01*
X261500Y221500D01*
X266450Y227500D02*Y221500D01*
X265700Y227500D02*X268700D01*
X269450Y226750D01*
Y225250D01*
X268700Y224500D02*X269450Y225250D01*
X266450Y224500D02*X268700D01*
X272000Y221500D02*X274250D01*
X271250Y222250D02*X272000Y221500D01*
X271250Y223750D02*Y222250D01*
Y223750D02*X272000Y224500D01*
X273500D01*
X274250Y223750D01*
X271250Y223000D02*X274250D01*
Y223750D02*Y223000D01*
X276800Y227500D02*Y222250D01*
X277550Y221500D01*
X276050Y225250D02*X277550D01*
X279800Y221500D02*X282050D01*
X279050Y222250D02*X279800Y221500D01*
X279050Y223750D02*Y222250D01*
Y223750D02*X279800Y224500D01*
X281300D01*
X282050Y223750D01*
X279050Y223000D02*X282050D01*
Y223750D02*Y223000D01*
X284600Y223750D02*Y221500D01*
Y223750D02*X285350Y224500D01*
X286850D01*
X283850D02*X284600Y223750D01*
X289400Y221500D02*X291650D01*
X292400Y222250D01*
X291650Y223000D02*X292400Y222250D01*
X289400Y223000D02*X291650D01*
X288650Y223750D02*X289400Y223000D01*
X288650Y223750D02*X289400Y224500D01*
X291650D01*
X292400Y223750D01*
X288650Y222250D02*X289400Y221500D01*
X294950D02*X297200D01*
X294200Y222250D02*X294950Y221500D01*
X294200Y223750D02*Y222250D01*
Y223750D02*X294950Y224500D01*
X296450D01*
X297200Y223750D01*
X294200Y223000D02*X297200D01*
Y223750D02*Y223000D01*
X299750Y223750D02*Y221500D01*
Y223750D02*X300500Y224500D01*
X301250D01*
X302000Y223750D01*
Y221500D01*
X299000Y224500D02*X299750Y223750D01*
X200000Y242500D02*X203000D01*
X201500D02*Y236500D01*
G54D78*X204800Y241000D02*Y240850D01*
G54D77*Y238750D02*Y236500D01*
X207050Y242500D02*Y237250D01*
X207800Y236500D01*
X206300Y240250D02*X207800D01*
X209300Y242500D02*Y237250D01*
X210050Y236500D01*
X212300D02*X214550D01*
X211550Y237250D02*X212300Y236500D01*
X211550Y238750D02*Y237250D01*
Y238750D02*X212300Y239500D01*
X213800D01*
X214550Y238750D01*
X211550Y238000D02*X214550D01*
Y238750D02*Y238000D01*
X216350Y240250D02*X217100D01*
X216350Y238750D02*X217100D01*
X221600Y237250D02*X222350Y236500D01*
X221600Y241750D02*X222350Y242500D01*
X221600Y241750D02*Y237250D01*
X224150Y239500D02*Y237250D01*
X224900Y236500D01*
X226400D01*
X227150Y237250D01*
Y239500D02*Y237250D01*
X229700Y238750D02*Y236500D01*
Y238750D02*X230450Y239500D01*
X231200D01*
X231950Y238750D01*
Y236500D01*
X228950Y239500D02*X229700Y238750D01*
X233750Y242500D02*Y236500D01*
Y238750D02*X236000Y236500D01*
X233750Y238750D02*X235250Y240250D01*
X238550Y238750D02*Y236500D01*
Y238750D02*X239300Y239500D01*
X240050D01*
X240800Y238750D01*
Y236500D01*
X237800Y239500D02*X238550Y238750D01*
X242600D02*Y237250D01*
Y238750D02*X243350Y239500D01*
X244850D01*
X245600Y238750D01*
Y237250D01*
X244850Y236500D02*X245600Y237250D01*
X243350Y236500D02*X244850D01*
X242600Y237250D02*X243350Y236500D01*
X247400Y239500D02*Y237250D01*
X248150Y236500D01*
X248900D01*
X249650Y237250D01*
Y239500D02*Y237250D01*
X250400Y236500D01*
X251150D01*
X251900Y237250D01*
Y239500D02*Y237250D01*
X254450Y238750D02*Y236500D01*
Y238750D02*X255200Y239500D01*
X255950D01*
X256700Y238750D01*
Y236500D01*
X253700Y239500D02*X254450Y238750D01*
X258500Y242500D02*X259250Y241750D01*
Y237250D01*
X258500Y236500D02*X259250Y237250D01*
X263750Y239500D02*X266750D01*
X271250Y242500D02*Y236500D01*
Y242500D02*X274250D01*
X271250Y239800D02*X273500D01*
X278300Y239500D02*X279050Y238750D01*
X276800Y239500D02*X278300D01*
X276050Y238750D02*X276800Y239500D01*
X276050Y238750D02*Y237250D01*
X276800Y236500D01*
X279050Y239500D02*Y237250D01*
X279800Y236500D01*
X276800D02*X278300D01*
X279050Y237250D01*
X281600Y242500D02*Y236500D01*
Y237250D02*X282350Y236500D01*
X283850D01*
X284600Y237250D01*
Y238750D02*Y237250D01*
X283850Y239500D02*X284600Y238750D01*
X282350Y239500D02*X283850D01*
X281600Y238750D02*X282350Y239500D01*
X287150Y238750D02*Y236500D01*
Y238750D02*X287900Y239500D01*
X289400D01*
X286400D02*X287150Y238750D01*
G54D78*X291200Y241000D02*Y240850D01*
G54D77*Y238750D02*Y236500D01*
X293450Y239500D02*X295700D01*
X292700Y238750D02*X293450Y239500D01*
X292700Y238750D02*Y237250D01*
X293450Y236500D01*
X295700D01*
X299750Y239500D02*X300500Y238750D01*
X298250Y239500D02*X299750D01*
X297500Y238750D02*X298250Y239500D01*
X297500Y238750D02*Y237250D01*
X298250Y236500D01*
X300500Y239500D02*Y237250D01*
X301250Y236500D01*
X298250D02*X299750D01*
X300500Y237250D01*
X303800Y242500D02*Y237250D01*
X304550Y236500D01*
X303050Y240250D02*X304550D01*
G54D78*X306050Y241000D02*Y240850D01*
G54D77*Y238750D02*Y236500D01*
X307550Y238750D02*Y237250D01*
Y238750D02*X308300Y239500D01*
X309800D01*
X310550Y238750D01*
Y237250D01*
X309800Y236500D02*X310550Y237250D01*
X308300Y236500D02*X309800D01*
X307550Y237250D02*X308300Y236500D01*
X313100Y238750D02*Y236500D01*
Y238750D02*X313850Y239500D01*
X314600D01*
X315350Y238750D01*
Y236500D01*
X312350Y239500D02*X313100Y238750D01*
X320600Y242500D02*Y236500D01*
X322550Y242500D02*X323600Y241450D01*
Y237550D01*
X322550Y236500D02*X323600Y237550D01*
X319850Y236500D02*X322550D01*
X319850Y242500D02*X322550D01*
X326150Y238750D02*Y236500D01*
Y238750D02*X326900Y239500D01*
X328400D01*
X325400D02*X326150Y238750D01*
X332450Y239500D02*X333200Y238750D01*
X330950Y239500D02*X332450D01*
X330200Y238750D02*X330950Y239500D01*
X330200Y238750D02*Y237250D01*
X330950Y236500D01*
X333200Y239500D02*Y237250D01*
X333950Y236500D01*
X330950D02*X332450D01*
X333200Y237250D01*
X335750Y239500D02*Y237250D01*
X336500Y236500D01*
X337250D01*
X338000Y237250D01*
Y239500D02*Y237250D01*
X338750Y236500D01*
X339500D01*
X340250Y237250D01*
Y239500D02*Y237250D01*
G54D78*X342050Y241000D02*Y240850D01*
G54D77*Y238750D02*Y236500D01*
X344300Y238750D02*Y236500D01*
Y238750D02*X345050Y239500D01*
X345800D01*
X346550Y238750D01*
Y236500D01*
X343550Y239500D02*X344300Y238750D01*
X350600Y239500D02*X351350Y238750D01*
X349100Y239500D02*X350600D01*
X348350Y238750D02*X349100Y239500D01*
X348350Y238750D02*Y237250D01*
X349100Y236500D01*
X350600D01*
X351350Y237250D01*
X348350Y235000D02*X349100Y234250D01*
X350600D01*
X351350Y235000D01*
Y239500D02*Y235000D01*
M02*
