G04 start of page 2 for group 0 idx 0 *
G04 Title: (unknown), top *
G04 Creator: pcb 20140316 *
G04 CreationDate: Thu 02 Jul 2020 08:37:42 PM GMT UTC *
G04 For: railfan *
G04 Format: Gerber/RS-274X *
G04 PCB-Dimensions (mil): 2000.00 1840.00 *
G04 PCB-Coordinate-Origin: lower left *
%MOIN*%
%FSLAX25Y25*%
%LNTOP*%
%ADD31C,0.1285*%
%ADD30C,0.0550*%
%ADD29C,0.0120*%
%ADD28C,0.0240*%
%ADD27R,0.0630X0.0630*%
%ADD26R,0.2100X0.2100*%
%ADD25R,0.2080X0.2080*%
%ADD24R,0.1201X0.1201*%
%ADD23R,0.0866X0.0866*%
%ADD22R,0.0177X0.0177*%
%ADD21R,0.0512X0.0512*%
%ADD20R,0.0550X0.0550*%
%ADD19R,0.0300X0.0300*%
%ADD18C,0.0600*%
%ADD17C,0.0900*%
%ADD16C,0.2937*%
%ADD15C,0.0080*%
%ADD14C,0.0150*%
%ADD13C,0.0200*%
%ADD12C,0.0100*%
%ADD11C,0.0001*%
G54D11*G36*
X83500Y92500D02*Y70000D01*
X51000D01*
Y92500D01*
X83500D01*
G37*
G36*
X86000Y98500D02*X99000D01*
Y26500D01*
X86000D01*
Y34953D01*
X86004Y35000D01*
X86000Y35047D01*
Y98500D01*
G37*
G36*
X51000Y92500D02*X69000D01*
Y50000D01*
X52500D01*
X51000Y51500D01*
Y92500D01*
G37*
G36*
X84500Y94500D02*X100500D01*
Y68000D01*
X84500D01*
Y94500D01*
G37*
G36*
X31426Y56000D02*X48000D01*
Y29000D01*
X31426D01*
Y42803D01*
X31430Y42805D01*
X31533Y42864D01*
X31625Y42938D01*
X31704Y43025D01*
X31766Y43125D01*
X32011Y43612D01*
X32205Y44122D01*
X32352Y44648D01*
X32451Y45184D01*
X32500Y45727D01*
Y46273D01*
X32451Y46816D01*
X32352Y47352D01*
X32205Y47878D01*
X32011Y48388D01*
X31772Y48878D01*
X31708Y48978D01*
X31628Y49066D01*
X31535Y49140D01*
X31432Y49199D01*
X31426Y49202D01*
Y56000D01*
G37*
G36*
X26502D02*X31426D01*
Y49202D01*
X31321Y49242D01*
X31205Y49266D01*
X31087Y49272D01*
X30968Y49260D01*
X30854Y49229D01*
X30745Y49180D01*
X30646Y49115D01*
X30558Y49035D01*
X30483Y48943D01*
X30424Y48840D01*
X30382Y48729D01*
X30357Y48613D01*
X30351Y48494D01*
X30364Y48376D01*
X30395Y48261D01*
X30446Y48154D01*
X30629Y47789D01*
X30774Y47407D01*
X30884Y47013D01*
X30958Y46611D01*
X30995Y46204D01*
Y45796D01*
X30958Y45389D01*
X30884Y44987D01*
X30774Y44593D01*
X30629Y44211D01*
X30450Y43844D01*
X30400Y43737D01*
X30369Y43623D01*
X30356Y43506D01*
X30362Y43388D01*
X30386Y43272D01*
X30428Y43162D01*
X30487Y43060D01*
X30561Y42968D01*
X30649Y42889D01*
X30748Y42824D01*
X30855Y42776D01*
X30969Y42745D01*
X31087Y42732D01*
X31205Y42738D01*
X31320Y42763D01*
X31426Y42803D01*
Y29000D01*
X27099D01*
X26502Y29510D01*
Y40000D01*
X26773D01*
X27316Y40049D01*
X27852Y40148D01*
X28378Y40295D01*
X28888Y40489D01*
X29378Y40728D01*
X29478Y40792D01*
X29566Y40872D01*
X29640Y40965D01*
X29699Y41068D01*
X29742Y41179D01*
X29766Y41295D01*
X29772Y41413D01*
X29760Y41532D01*
X29729Y41646D01*
X29680Y41755D01*
X29615Y41854D01*
X29535Y41942D01*
X29443Y42017D01*
X29340Y42076D01*
X29229Y42118D01*
X29113Y42143D01*
X28994Y42149D01*
X28876Y42136D01*
X28761Y42105D01*
X28654Y42054D01*
X28289Y41871D01*
X27907Y41726D01*
X27513Y41616D01*
X27111Y41542D01*
X26704Y41505D01*
X26502D01*
Y50495D01*
X26704D01*
X27111Y50458D01*
X27513Y50384D01*
X27907Y50274D01*
X28289Y50129D01*
X28656Y49950D01*
X28763Y49900D01*
X28877Y49869D01*
X28994Y49856D01*
X29112Y49862D01*
X29228Y49886D01*
X29338Y49928D01*
X29440Y49987D01*
X29532Y50061D01*
X29611Y50149D01*
X29676Y50248D01*
X29724Y50355D01*
X29755Y50469D01*
X29768Y50587D01*
X29762Y50705D01*
X29737Y50820D01*
X29695Y50930D01*
X29636Y51033D01*
X29562Y51125D01*
X29475Y51204D01*
X29375Y51266D01*
X28888Y51511D01*
X28378Y51705D01*
X27852Y51852D01*
X27316Y51951D01*
X26773Y52000D01*
X26502D01*
Y56000D01*
G37*
G36*
X21574D02*X26502D01*
Y52000D01*
X26227D01*
X25684Y51951D01*
X25148Y51852D01*
X24622Y51705D01*
X24112Y51511D01*
X23622Y51272D01*
X23522Y51208D01*
X23434Y51128D01*
X23360Y51035D01*
X23301Y50932D01*
X23258Y50821D01*
X23234Y50705D01*
X23228Y50587D01*
X23240Y50468D01*
X23271Y50354D01*
X23320Y50245D01*
X23385Y50146D01*
X23465Y50058D01*
X23557Y49983D01*
X23660Y49924D01*
X23771Y49882D01*
X23887Y49857D01*
X24006Y49851D01*
X24124Y49864D01*
X24239Y49895D01*
X24346Y49946D01*
X24711Y50129D01*
X25093Y50274D01*
X25487Y50384D01*
X25889Y50458D01*
X26296Y50495D01*
X26502D01*
Y41505D01*
X26296D01*
X25889Y41542D01*
X25487Y41616D01*
X25093Y41726D01*
X24711Y41871D01*
X24344Y42050D01*
X24237Y42100D01*
X24123Y42131D01*
X24006Y42144D01*
X23888Y42138D01*
X23772Y42114D01*
X23662Y42072D01*
X23560Y42013D01*
X23468Y41939D01*
X23389Y41851D01*
X23324Y41752D01*
X23276Y41645D01*
X23245Y41531D01*
X23232Y41413D01*
X23238Y41295D01*
X23263Y41180D01*
X23305Y41070D01*
X23364Y40967D01*
X23438Y40875D01*
X23525Y40796D01*
X23625Y40734D01*
X24112Y40489D01*
X24622Y40295D01*
X25148Y40148D01*
X25684Y40049D01*
X26227Y40000D01*
X26502D01*
Y29510D01*
X26247Y29728D01*
X24142Y31018D01*
X21862Y31962D01*
X21574Y32031D01*
Y42798D01*
X21679Y42758D01*
X21795Y42734D01*
X21913Y42728D01*
X22032Y42740D01*
X22146Y42771D01*
X22255Y42820D01*
X22354Y42885D01*
X22442Y42965D01*
X22517Y43057D01*
X22576Y43160D01*
X22618Y43271D01*
X22643Y43387D01*
X22649Y43506D01*
X22636Y43624D01*
X22605Y43739D01*
X22554Y43846D01*
X22371Y44211D01*
X22226Y44593D01*
X22116Y44987D01*
X22042Y45389D01*
X22005Y45796D01*
Y46204D01*
X22042Y46611D01*
X22116Y47013D01*
X22226Y47407D01*
X22371Y47789D01*
X22550Y48156D01*
X22600Y48263D01*
X22631Y48377D01*
X22644Y48494D01*
X22638Y48612D01*
X22614Y48728D01*
X22572Y48838D01*
X22513Y48940D01*
X22439Y49032D01*
X22351Y49111D01*
X22252Y49176D01*
X22145Y49224D01*
X22031Y49255D01*
X21913Y49268D01*
X21795Y49262D01*
X21680Y49237D01*
X21574Y49197D01*
Y56000D01*
G37*
G36*
X16500D02*X21574D01*
Y49197D01*
X21570Y49195D01*
X21467Y49136D01*
X21375Y49062D01*
X21296Y48975D01*
X21234Y48875D01*
X20989Y48388D01*
X20795Y47878D01*
X20648Y47352D01*
X20549Y46816D01*
X20500Y46273D01*
Y45727D01*
X20549Y45184D01*
X20648Y44648D01*
X20795Y44122D01*
X20989Y43612D01*
X21228Y43122D01*
X21292Y43022D01*
X21372Y42934D01*
X21465Y42860D01*
X21568Y42801D01*
X21574Y42798D01*
Y32031D01*
X19461Y32539D01*
X17000Y32732D01*
X16500Y32693D01*
Y56000D01*
G37*
G36*
X50000Y48000D02*X52000Y43000D01*
X48000Y39000D01*
X40000Y41000D01*
Y51000D01*
X48000Y53000D01*
X52000Y49000D01*
X50000Y48000D01*
G37*
G36*
X56000Y21500D02*Y6500D01*
X43500D01*
Y21500D01*
X56000D01*
G37*
G36*
X178426Y101050D02*X182673Y101057D01*
X182826Y101094D01*
X182971Y101154D01*
X183106Y101236D01*
X183225Y101339D01*
X183328Y101458D01*
X183410Y101593D01*
X183470Y101738D01*
X183500Y101863D01*
Y69500D01*
X178426D01*
Y82803D01*
X178430Y82805D01*
X178533Y82864D01*
X178625Y82938D01*
X178704Y83025D01*
X178766Y83125D01*
X179011Y83612D01*
X179205Y84122D01*
X179352Y84648D01*
X179451Y85184D01*
X179500Y85727D01*
Y86273D01*
X179451Y86816D01*
X179352Y87352D01*
X179205Y87878D01*
X179011Y88388D01*
X178772Y88878D01*
X178708Y88978D01*
X178628Y89066D01*
X178535Y89140D01*
X178432Y89199D01*
X178426Y89202D01*
Y101050D01*
G37*
G36*
Y111050D02*X178657Y111050D01*
Y108945D01*
X178426Y108945D01*
Y111050D01*
G37*
G36*
Y126300D02*X183500D01*
Y118137D01*
X183470Y118262D01*
X183410Y118407D01*
X183328Y118542D01*
X183225Y118661D01*
X183106Y118764D01*
X182971Y118846D01*
X182826Y118906D01*
X182673Y118943D01*
X182516Y118952D01*
X178426Y118945D01*
Y126300D01*
G37*
G36*
X173502D02*X178426D01*
Y118945D01*
X177241Y118943D01*
X177088Y118906D01*
X176943Y118846D01*
X176808Y118764D01*
X176689Y118661D01*
X176586Y118542D01*
X176504Y118407D01*
X176444Y118262D01*
X176407Y118109D01*
X176398Y117952D01*
X176407Y111891D01*
X176444Y111738D01*
X176504Y111593D01*
X176586Y111458D01*
X176689Y111339D01*
X176808Y111236D01*
X176943Y111154D01*
X177088Y111094D01*
X177241Y111057D01*
X177398Y111048D01*
X178426Y111050D01*
Y108945D01*
X177241Y108943D01*
X177088Y108906D01*
X176943Y108846D01*
X176808Y108764D01*
X176689Y108661D01*
X176586Y108542D01*
X176504Y108407D01*
X176444Y108262D01*
X176407Y108109D01*
X176398Y107952D01*
X176407Y101891D01*
X176444Y101738D01*
X176504Y101593D01*
X176586Y101458D01*
X176689Y101339D01*
X176808Y101236D01*
X176943Y101154D01*
X177088Y101094D01*
X177241Y101057D01*
X177398Y101048D01*
X178426Y101050D01*
Y89202D01*
X178321Y89242D01*
X178205Y89266D01*
X178087Y89272D01*
X177968Y89260D01*
X177854Y89229D01*
X177745Y89180D01*
X177646Y89115D01*
X177558Y89035D01*
X177483Y88943D01*
X177424Y88840D01*
X177382Y88729D01*
X177357Y88613D01*
X177351Y88494D01*
X177364Y88376D01*
X177395Y88261D01*
X177446Y88154D01*
X177629Y87789D01*
X177774Y87407D01*
X177884Y87013D01*
X177958Y86611D01*
X177995Y86204D01*
Y85796D01*
X177958Y85389D01*
X177884Y84987D01*
X177774Y84593D01*
X177629Y84211D01*
X177450Y83844D01*
X177400Y83737D01*
X177369Y83623D01*
X177356Y83506D01*
X177362Y83388D01*
X177386Y83272D01*
X177428Y83162D01*
X177487Y83060D01*
X177561Y82968D01*
X177649Y82889D01*
X177748Y82824D01*
X177855Y82776D01*
X177969Y82745D01*
X178087Y82732D01*
X178205Y82738D01*
X178320Y82763D01*
X178426Y82803D01*
Y69500D01*
X178392D01*
X178369Y69538D01*
X177756Y70256D01*
X177038Y70869D01*
X176232Y71363D01*
X175360Y71724D01*
X174442Y71944D01*
X173502Y72018D01*
Y80000D01*
X173773D01*
X174316Y80049D01*
X174852Y80148D01*
X175378Y80295D01*
X175888Y80489D01*
X176378Y80728D01*
X176478Y80792D01*
X176566Y80872D01*
X176640Y80965D01*
X176699Y81068D01*
X176742Y81179D01*
X176766Y81295D01*
X176772Y81413D01*
X176760Y81532D01*
X176729Y81646D01*
X176680Y81755D01*
X176615Y81854D01*
X176535Y81942D01*
X176443Y82017D01*
X176340Y82076D01*
X176229Y82118D01*
X176113Y82143D01*
X175994Y82149D01*
X175876Y82136D01*
X175761Y82105D01*
X175654Y82054D01*
X175289Y81871D01*
X174907Y81726D01*
X174513Y81616D01*
X174111Y81542D01*
X173704Y81505D01*
X173502D01*
Y90495D01*
X173704D01*
X174111Y90458D01*
X174513Y90384D01*
X174907Y90274D01*
X175289Y90129D01*
X175656Y89950D01*
X175763Y89900D01*
X175877Y89869D01*
X175994Y89856D01*
X176112Y89862D01*
X176228Y89886D01*
X176338Y89928D01*
X176440Y89987D01*
X176532Y90061D01*
X176611Y90149D01*
X176676Y90248D01*
X176724Y90355D01*
X176755Y90469D01*
X176768Y90587D01*
X176762Y90705D01*
X176737Y90820D01*
X176695Y90930D01*
X176636Y91033D01*
X176562Y91125D01*
X176475Y91204D01*
X176375Y91266D01*
X175888Y91511D01*
X175378Y91705D01*
X174852Y91852D01*
X174316Y91951D01*
X173773Y92000D01*
X173502D01*
Y126300D01*
G37*
G36*
X168574Y107736D02*X168883Y108045D01*
X168922Y108078D01*
X169055Y108233D01*
X169055Y108234D01*
X169162Y108408D01*
X169240Y108597D01*
X169288Y108796D01*
X169304Y109000D01*
X169300Y109051D01*
Y126300D01*
X173502D01*
Y92000D01*
X173227D01*
X172684Y91951D01*
X172148Y91852D01*
X171622Y91705D01*
X171112Y91511D01*
X170622Y91272D01*
X170522Y91208D01*
X170434Y91128D01*
X170360Y91035D01*
X170301Y90932D01*
X170258Y90821D01*
X170234Y90705D01*
X170228Y90587D01*
X170240Y90468D01*
X170271Y90354D01*
X170320Y90245D01*
X170385Y90146D01*
X170465Y90058D01*
X170557Y89983D01*
X170660Y89924D01*
X170771Y89882D01*
X170887Y89857D01*
X171006Y89851D01*
X171124Y89864D01*
X171239Y89895D01*
X171346Y89946D01*
X171711Y90129D01*
X172093Y90274D01*
X172487Y90384D01*
X172889Y90458D01*
X173296Y90495D01*
X173502D01*
Y81505D01*
X173296D01*
X172889Y81542D01*
X172487Y81616D01*
X172093Y81726D01*
X171711Y81871D01*
X171344Y82050D01*
X171237Y82100D01*
X171123Y82131D01*
X171006Y82144D01*
X170888Y82138D01*
X170772Y82114D01*
X170662Y82072D01*
X170560Y82013D01*
X170468Y81939D01*
X170389Y81851D01*
X170324Y81752D01*
X170276Y81645D01*
X170245Y81531D01*
X170232Y81413D01*
X170238Y81295D01*
X170263Y81180D01*
X170305Y81070D01*
X170364Y80967D01*
X170438Y80875D01*
X170525Y80796D01*
X170625Y80734D01*
X171112Y80489D01*
X171622Y80295D01*
X172148Y80148D01*
X172684Y80049D01*
X173227Y80000D01*
X173502D01*
Y72018D01*
X173500Y72019D01*
X172558Y71944D01*
X171640Y71724D01*
X170768Y71363D01*
X169962Y70869D01*
X169244Y70256D01*
X168631Y69538D01*
X168608Y69500D01*
X168574D01*
Y82798D01*
X168679Y82758D01*
X168795Y82734D01*
X168913Y82728D01*
X169032Y82740D01*
X169146Y82771D01*
X169255Y82820D01*
X169354Y82885D01*
X169442Y82965D01*
X169517Y83057D01*
X169576Y83160D01*
X169618Y83271D01*
X169643Y83387D01*
X169649Y83506D01*
X169636Y83624D01*
X169605Y83739D01*
X169554Y83846D01*
X169371Y84211D01*
X169226Y84593D01*
X169116Y84987D01*
X169042Y85389D01*
X169005Y85796D01*
Y86204D01*
X169042Y86611D01*
X169116Y87013D01*
X169226Y87407D01*
X169371Y87789D01*
X169550Y88156D01*
X169600Y88263D01*
X169631Y88377D01*
X169644Y88494D01*
X169638Y88612D01*
X169614Y88728D01*
X169572Y88838D01*
X169513Y88940D01*
X169439Y89032D01*
X169351Y89111D01*
X169252Y89176D01*
X169145Y89224D01*
X169031Y89255D01*
X168913Y89268D01*
X168795Y89262D01*
X168680Y89237D01*
X168574Y89197D01*
Y107736D01*
G37*
G36*
X164496Y107900D02*X164491Y109757D01*
X164454Y109910D01*
X164417Y110000D01*
X164454Y110090D01*
X164491Y110243D01*
X164500Y110400D01*
X164492Y113258D01*
X164500Y113400D01*
X164491Y113557D01*
Y113557D01*
X164491Y113557D01*
X164463Y114028D01*
X164316Y114640D01*
X164075Y115222D01*
X163746Y115758D01*
X163337Y116237D01*
X162858Y116646D01*
X162322Y116975D01*
X161740Y117216D01*
X161128Y117363D01*
X160500Y117412D01*
X159872Y117363D01*
X159260Y117216D01*
X158678Y116975D01*
X158142Y116646D01*
X157663Y116237D01*
X157254Y115758D01*
X156925Y115222D01*
X156684Y114640D01*
X156537Y114028D01*
X156488Y113400D01*
X156500Y113237D01*
X156509Y110243D01*
X156546Y110090D01*
X156583Y110000D01*
X156546Y109910D01*
X156509Y109757D01*
X156500Y109600D01*
X156508Y106859D01*
X156488Y106600D01*
X156537Y105972D01*
X156684Y105360D01*
X156925Y104778D01*
X157254Y104242D01*
X157663Y103763D01*
X158142Y103354D01*
X158678Y103025D01*
X159260Y102784D01*
X159872Y102637D01*
X160500Y102588D01*
X161128Y102637D01*
X161740Y102784D01*
X162322Y103025D01*
X162858Y103354D01*
X163337Y103763D01*
X163746Y104242D01*
X164075Y104778D01*
X164291Y105300D01*
X165549D01*
X165600Y105296D01*
X165804Y105312D01*
X165804Y105312D01*
X166003Y105360D01*
X166192Y105438D01*
X166366Y105545D01*
X166522Y105678D01*
X166555Y105717D01*
X168574Y107736D01*
Y89197D01*
X168570Y89195D01*
X168467Y89136D01*
X168375Y89062D01*
X168296Y88975D01*
X168234Y88875D01*
X167989Y88388D01*
X167795Y87878D01*
X167648Y87352D01*
X167549Y86816D01*
X167500Y86273D01*
Y85727D01*
X167549Y85184D01*
X167648Y84648D01*
X167795Y84122D01*
X167989Y83612D01*
X168228Y83122D01*
X168292Y83022D01*
X168372Y82934D01*
X168465Y82860D01*
X168568Y82801D01*
X168574Y82798D01*
Y69500D01*
X135000D01*
Y93500D01*
X50000D01*
Y69500D01*
X31750D01*
Y82248D01*
X31868Y82257D01*
X31982Y82285D01*
X32092Y82330D01*
X32192Y82391D01*
X32282Y82468D01*
X32359Y82558D01*
X32420Y82658D01*
X32465Y82768D01*
X32493Y82882D01*
X32500Y83000D01*
Y89000D01*
X32493Y89118D01*
X32465Y89232D01*
X32420Y89342D01*
X32359Y89442D01*
X32282Y89532D01*
X32192Y89609D01*
X32092Y89670D01*
X31982Y89715D01*
X31868Y89743D01*
X31750Y89752D01*
Y144412D01*
X35883Y148545D01*
X35922Y148578D01*
X36055Y148733D01*
X36055Y148734D01*
X36162Y148908D01*
X36240Y149097D01*
X36288Y149296D01*
X36304Y149500D01*
X36300Y149551D01*
Y177962D01*
X38038Y179700D01*
X146962D01*
X148700Y177962D01*
Y132551D01*
X148696Y132500D01*
X148712Y132296D01*
X148712Y132296D01*
X148760Y132097D01*
X148838Y131908D01*
X148879Y131842D01*
X148945Y131734D01*
X148945Y131733D01*
X149078Y131578D01*
X149117Y131545D01*
X151401Y129261D01*
X151405Y124772D01*
X151423Y124695D01*
X151453Y124622D01*
X151494Y124555D01*
X151545Y124495D01*
X151605Y124444D01*
X151672Y124403D01*
X151745Y124373D01*
X151822Y124355D01*
X151900Y124350D01*
X160278Y124355D01*
X160355Y124373D01*
X160428Y124403D01*
X160495Y124444D01*
X160555Y124495D01*
X160606Y124555D01*
X160647Y124622D01*
X160677Y124695D01*
X160695Y124772D01*
X160700Y124850D01*
X160699Y126300D01*
X166700D01*
Y109538D01*
X165062Y107900D01*
X164496D01*
G37*
G36*
X31750Y69500D02*X31392D01*
X31369Y69538D01*
X30756Y70256D01*
X30038Y70869D01*
X29232Y71363D01*
X28360Y71724D01*
X27442Y71944D01*
X26500Y72019D01*
Y80000D01*
X29500D01*
X29618Y80007D01*
X29732Y80035D01*
X29842Y80080D01*
X29942Y80141D01*
X30032Y80218D01*
X30109Y80308D01*
X30170Y80408D01*
X30215Y80518D01*
X30243Y80632D01*
X30252Y80750D01*
X30243Y80868D01*
X30215Y80982D01*
X30170Y81092D01*
X30109Y81192D01*
X30032Y81282D01*
X29942Y81359D01*
X29842Y81420D01*
X29732Y81465D01*
X29618Y81493D01*
X29500Y81500D01*
X26500D01*
Y90500D01*
X29500D01*
X29618Y90507D01*
X29732Y90535D01*
X29842Y90580D01*
X29942Y90641D01*
X30032Y90718D01*
X30109Y90808D01*
X30170Y90908D01*
X30215Y91018D01*
X30243Y91132D01*
X30252Y91250D01*
X30243Y91368D01*
X30215Y91482D01*
X30170Y91592D01*
X30109Y91692D01*
X30032Y91782D01*
X29942Y91859D01*
X29842Y91920D01*
X29732Y91965D01*
X29618Y91993D01*
X29500Y92000D01*
X26500D01*
Y139162D01*
X31750Y144412D01*
Y89752D01*
X31632Y89743D01*
X31518Y89715D01*
X31408Y89670D01*
X31308Y89609D01*
X31218Y89532D01*
X31141Y89442D01*
X31080Y89342D01*
X31035Y89232D01*
X31007Y89118D01*
X31000Y89000D01*
Y83000D01*
X31007Y82882D01*
X31035Y82768D01*
X31080Y82658D01*
X31141Y82558D01*
X31218Y82468D01*
X31308Y82391D01*
X31408Y82330D01*
X31518Y82285D01*
X31632Y82257D01*
X31750Y82248D01*
Y69500D01*
G37*
G36*
X26500Y72019D02*X26500D01*
X25558Y71944D01*
X24640Y71724D01*
X23768Y71363D01*
X22962Y70869D01*
X22244Y70256D01*
X21631Y69538D01*
X21608Y69500D01*
X21250D01*
Y82248D01*
X21368Y82257D01*
X21482Y82285D01*
X21592Y82330D01*
X21692Y82391D01*
X21782Y82468D01*
X21859Y82558D01*
X21920Y82658D01*
X21965Y82768D01*
X21993Y82882D01*
X22000Y83000D01*
Y89000D01*
X21993Y89118D01*
X21965Y89232D01*
X21920Y89342D01*
X21859Y89442D01*
X21782Y89532D01*
X21692Y89609D01*
X21592Y89670D01*
X21482Y89715D01*
X21368Y89743D01*
X21250Y89752D01*
Y101055D01*
X22759Y101057D01*
X22912Y101094D01*
X23057Y101154D01*
X23192Y101236D01*
X23311Y101339D01*
X23414Y101458D01*
X23496Y101593D01*
X23556Y101738D01*
X23593Y101891D01*
X23602Y102048D01*
X23593Y108109D01*
X23556Y108262D01*
X23496Y108407D01*
X23414Y108542D01*
X23311Y108661D01*
X23192Y108764D01*
X23057Y108846D01*
X22912Y108906D01*
X22759Y108943D01*
X22602Y108952D01*
X21343Y108950D01*
Y111055D01*
X22759Y111057D01*
X22912Y111094D01*
X23057Y111154D01*
X23192Y111236D01*
X23311Y111339D01*
X23414Y111458D01*
X23496Y111593D01*
X23556Y111738D01*
X23593Y111891D01*
X23602Y112048D01*
X23593Y118109D01*
X23556Y118262D01*
X23496Y118407D01*
X23414Y118542D01*
X23311Y118661D01*
X23192Y118764D01*
X23057Y118846D01*
X22912Y118906D01*
X22759Y118943D01*
X22602Y118952D01*
X21250Y118950D01*
Y133912D01*
X26500Y139162D01*
Y92000D01*
X23500D01*
X23382Y91993D01*
X23268Y91965D01*
X23158Y91920D01*
X23058Y91859D01*
X22968Y91782D01*
X22891Y91692D01*
X22830Y91592D01*
X22785Y91482D01*
X22757Y91368D01*
X22748Y91250D01*
X22757Y91132D01*
X22785Y91018D01*
X22830Y90908D01*
X22891Y90808D01*
X22968Y90718D01*
X23058Y90641D01*
X23158Y90580D01*
X23268Y90535D01*
X23382Y90507D01*
X23500Y90500D01*
X26500D01*
Y81500D01*
X23500D01*
X23382Y81493D01*
X23268Y81465D01*
X23158Y81420D01*
X23058Y81359D01*
X22968Y81282D01*
X22891Y81192D01*
X22830Y81092D01*
X22785Y80982D01*
X22757Y80868D01*
X22748Y80750D01*
X22757Y80632D01*
X22785Y80518D01*
X22830Y80408D01*
X22891Y80308D01*
X22968Y80218D01*
X23058Y80141D01*
X23158Y80080D01*
X23268Y80035D01*
X23382Y80007D01*
X23500Y80000D01*
X26500D01*
Y72019D01*
G37*
G36*
X21250Y118950D02*X17327Y118943D01*
X17174Y118906D01*
X17029Y118846D01*
X16894Y118764D01*
X16775Y118661D01*
X16672Y118542D01*
X16590Y118407D01*
X16530Y118262D01*
X16500Y118137D01*
X16470Y118262D01*
X16410Y118407D01*
X16328Y118542D01*
X16225Y118661D01*
X16106Y118764D01*
X15971Y118846D01*
X15826Y118906D01*
X15673Y118943D01*
X15516Y118952D01*
X14257Y118950D01*
Y126919D01*
X21250Y133912D01*
Y118950D01*
G37*
G36*
Y69500D02*X14257D01*
Y101055D01*
X15673Y101057D01*
X15826Y101094D01*
X15971Y101154D01*
X16106Y101236D01*
X16225Y101339D01*
X16328Y101458D01*
X16410Y101593D01*
X16470Y101738D01*
X16500Y101863D01*
X16530Y101738D01*
X16590Y101593D01*
X16672Y101458D01*
X16775Y101339D01*
X16894Y101236D01*
X17029Y101154D01*
X17174Y101094D01*
X17327Y101057D01*
X17484Y101048D01*
X21250Y101055D01*
Y89752D01*
X21132Y89743D01*
X21018Y89715D01*
X20908Y89670D01*
X20808Y89609D01*
X20718Y89532D01*
X20641Y89442D01*
X20580Y89342D01*
X20535Y89232D01*
X20507Y89118D01*
X20500Y89000D01*
Y83000D01*
X20507Y82882D01*
X20535Y82768D01*
X20580Y82658D01*
X20641Y82558D01*
X20718Y82468D01*
X20808Y82391D01*
X20908Y82330D01*
X21018Y82285D01*
X21132Y82257D01*
X21250Y82248D01*
Y69500D01*
G37*
G36*
X70000Y69000D02*X115000D01*
Y63000D01*
X107721D01*
X107620Y63042D01*
X107314Y63115D01*
X107000Y63140D01*
X106686Y63115D01*
X106380Y63042D01*
X106279Y63000D01*
X105694D01*
X105649Y63011D01*
X105492Y63020D01*
X101201Y63011D01*
X101156Y63000D01*
X83844D01*
X83799Y63011D01*
X83642Y63020D01*
X79351Y63011D01*
X79306Y63000D01*
X70000D01*
Y69000D01*
G37*
G36*
X78514Y50500D02*X68000D01*
Y54000D01*
X76500D01*
X78525Y51975D01*
X78517Y51941D01*
X78508Y51784D01*
X78514Y50500D01*
G37*
G36*
X78500Y49000D02*Y44770D01*
X77939D01*
X77911Y44788D01*
X77620Y44908D01*
X77314Y44981D01*
X77000Y45006D01*
X76686Y44981D01*
X76380Y44908D01*
X76089Y44788D01*
X76061Y44770D01*
X75439D01*
X75411Y44788D01*
X75120Y44908D01*
X74814Y44981D01*
X74500Y45006D01*
X74186Y44981D01*
X73880Y44908D01*
X73589Y44788D01*
X73321Y44623D01*
X73081Y44419D01*
X72877Y44179D01*
X72712Y43911D01*
X72592Y43620D01*
X72519Y43314D01*
X72494Y43000D01*
X46000D01*
Y49000D01*
X78500D01*
G37*
G36*
X52000Y41500D02*X72500D01*
Y35500D01*
X50000D01*
Y39500D01*
X52000Y41500D01*
G37*
G36*
X71000D02*X73177D01*
X73321Y41377D01*
X73589Y41212D01*
X73880Y41092D01*
X74186Y41019D01*
X74500Y40994D01*
X74814Y41019D01*
X75120Y41092D01*
X75411Y41212D01*
X75679Y41377D01*
X75750Y41437D01*
X75821Y41377D01*
X76089Y41212D01*
X76380Y41092D01*
X76686Y41019D01*
X77000Y40994D01*
X77314Y41019D01*
X77620Y41092D01*
X77911Y41212D01*
X78179Y41377D01*
X78323Y41500D01*
X78500D01*
Y35500D01*
X71000D01*
Y41500D01*
G37*
G36*
X106475Y51975D02*X108500Y54000D01*
X117000D01*
Y50500D01*
X106490D01*
X106483Y51941D01*
X106475Y51975D01*
G37*
G36*
X101500Y92500D02*X134000D01*
Y70000D01*
X101500D01*
Y92500D01*
G37*
G36*
X106500Y49000D02*X166000D01*
Y43000D01*
X112500D01*
X112481Y43314D01*
X112408Y43620D01*
X112288Y43911D01*
X112123Y44179D01*
X111919Y44419D01*
X111679Y44623D01*
X111411Y44788D01*
X111120Y44908D01*
X110814Y44981D01*
X110500Y45006D01*
X110186Y44981D01*
X109880Y44908D01*
X109589Y44788D01*
X109561Y44770D01*
X108939D01*
X108911Y44788D01*
X108620Y44908D01*
X108314Y44981D01*
X108000Y45006D01*
X107686Y44981D01*
X107380Y44908D01*
X107089Y44788D01*
X107061Y44770D01*
X106500D01*
Y49000D01*
G37*
G36*
X178750Y63084D02*X178863Y63268D01*
X178959Y63500D01*
X187500D01*
Y32049D01*
X185461Y32539D01*
X183000Y32732D01*
X180539Y32539D01*
X178750Y32109D01*
Y42248D01*
X178868Y42257D01*
X178982Y42285D01*
X179092Y42330D01*
X179192Y42391D01*
X179282Y42468D01*
X179359Y42558D01*
X179420Y42658D01*
X179465Y42768D01*
X179493Y42882D01*
X179500Y43000D01*
Y49000D01*
X179493Y49118D01*
X179465Y49232D01*
X179420Y49342D01*
X179359Y49442D01*
X179282Y49532D01*
X179192Y49609D01*
X179092Y49670D01*
X178982Y49715D01*
X178868Y49743D01*
X178750Y49752D01*
Y63084D01*
G37*
G36*
X173500Y59981D02*X174442Y60056D01*
X175360Y60276D01*
X176232Y60637D01*
X177038Y61131D01*
X177756Y61744D01*
X178369Y62462D01*
X178750Y63084D01*
Y49752D01*
X178632Y49743D01*
X178518Y49715D01*
X178408Y49670D01*
X178308Y49609D01*
X178218Y49532D01*
X178141Y49442D01*
X178080Y49342D01*
X178035Y49232D01*
X178007Y49118D01*
X178000Y49000D01*
Y43000D01*
X178007Y42882D01*
X178035Y42768D01*
X178080Y42658D01*
X178141Y42558D01*
X178218Y42468D01*
X178308Y42391D01*
X178408Y42330D01*
X178518Y42285D01*
X178632Y42257D01*
X178750Y42248D01*
Y32109D01*
X178138Y31962D01*
X175858Y31018D01*
X173753Y29728D01*
X173500Y29512D01*
Y40000D01*
X176500D01*
X176618Y40007D01*
X176732Y40035D01*
X176842Y40080D01*
X176942Y40141D01*
X177032Y40218D01*
X177109Y40308D01*
X177170Y40408D01*
X177215Y40518D01*
X177243Y40632D01*
X177252Y40750D01*
X177243Y40868D01*
X177215Y40982D01*
X177170Y41092D01*
X177109Y41192D01*
X177032Y41282D01*
X176942Y41359D01*
X176842Y41420D01*
X176732Y41465D01*
X176618Y41493D01*
X176500Y41500D01*
X173500D01*
Y50500D01*
X176500D01*
X176618Y50507D01*
X176732Y50535D01*
X176842Y50580D01*
X176942Y50641D01*
X177032Y50718D01*
X177109Y50808D01*
X177170Y50908D01*
X177215Y51018D01*
X177243Y51132D01*
X177252Y51250D01*
X177243Y51368D01*
X177215Y51482D01*
X177170Y51592D01*
X177109Y51692D01*
X177032Y51782D01*
X176942Y51859D01*
X176842Y51920D01*
X176732Y51965D01*
X176618Y51993D01*
X176500Y52000D01*
X173500D01*
Y59981D01*
G37*
G36*
X168250Y63084D02*X168631Y62462D01*
X169244Y61744D01*
X169962Y61131D01*
X170768Y60637D01*
X171640Y60276D01*
X172558Y60056D01*
X173500Y59981D01*
X173500D01*
Y52000D01*
X170500D01*
X170382Y51993D01*
X170268Y51965D01*
X170158Y51920D01*
X170058Y51859D01*
X169968Y51782D01*
X169891Y51692D01*
X169830Y51592D01*
X169785Y51482D01*
X169757Y51368D01*
X169748Y51250D01*
X169757Y51132D01*
X169785Y51018D01*
X169830Y50908D01*
X169891Y50808D01*
X169968Y50718D01*
X170058Y50641D01*
X170158Y50580D01*
X170268Y50535D01*
X170382Y50507D01*
X170500Y50500D01*
X173500D01*
Y41500D01*
X170500D01*
X170382Y41493D01*
X170268Y41465D01*
X170158Y41420D01*
X170058Y41359D01*
X169968Y41282D01*
X169891Y41192D01*
X169830Y41092D01*
X169785Y40982D01*
X169757Y40868D01*
X169748Y40750D01*
X169757Y40632D01*
X169785Y40518D01*
X169830Y40408D01*
X169891Y40308D01*
X169968Y40218D01*
X170058Y40141D01*
X170158Y40080D01*
X170268Y40035D01*
X170382Y40007D01*
X170500Y40000D01*
X173500D01*
Y29512D01*
X171876Y28124D01*
X170272Y26247D01*
X168982Y24142D01*
X168250Y22374D01*
Y42248D01*
X168368Y42257D01*
X168482Y42285D01*
X168592Y42330D01*
X168692Y42391D01*
X168782Y42468D01*
X168859Y42558D01*
X168920Y42658D01*
X168965Y42768D01*
X168993Y42882D01*
X169000Y43000D01*
Y49000D01*
X168993Y49118D01*
X168965Y49232D01*
X168920Y49342D01*
X168859Y49442D01*
X168782Y49532D01*
X168692Y49609D01*
X168592Y49670D01*
X168482Y49715D01*
X168368Y49743D01*
X168250Y49752D01*
Y63084D01*
G37*
G36*
X136500Y21000D02*Y63500D01*
X168041D01*
X168137Y63268D01*
X168250Y63084D01*
Y49752D01*
X168132Y49743D01*
X168018Y49715D01*
X167908Y49670D01*
X167808Y49609D01*
X167718Y49532D01*
X167641Y49442D01*
X167580Y49342D01*
X167535Y49232D01*
X167507Y49118D01*
X167500Y49000D01*
Y43000D01*
X167507Y42882D01*
X167535Y42768D01*
X167580Y42658D01*
X167641Y42558D01*
X167718Y42468D01*
X167808Y42391D01*
X167908Y42330D01*
X168018Y42285D01*
X168132Y42257D01*
X168250Y42248D01*
Y22374D01*
X168038Y21862D01*
X167831Y21000D01*
X136500D01*
G37*
G36*
X134500Y48000D02*X132500Y49000D01*
X136500Y53000D01*
X144500Y51000D01*
Y41000D01*
X136500Y39000D01*
X132500Y43000D01*
X134500Y48000D01*
G37*
G36*
X134000Y92500D02*Y51500D01*
X132500Y50000D01*
X116000D01*
Y92500D01*
X134000D01*
G37*
G36*
X114500Y31500D02*Y25500D01*
X108823D01*
X108679Y25623D01*
X108411Y25788D01*
X108120Y25908D01*
X107814Y25981D01*
X107500Y26006D01*
X107186Y25981D01*
X106880Y25908D01*
X106589Y25788D01*
X106321Y25623D01*
X106177Y25500D01*
X106000D01*
Y31236D01*
X106082Y31286D01*
X106201Y31389D01*
X106246Y31441D01*
X106321Y31377D01*
X106589Y31212D01*
X106880Y31092D01*
X107186Y31019D01*
X107500Y30994D01*
X107814Y31019D01*
X108120Y31092D01*
X108411Y31212D01*
X108679Y31377D01*
X108823Y31500D01*
X114500D01*
G37*
G36*
X116000D02*X124500D01*
Y26139D01*
X124451Y26119D01*
X124276Y26012D01*
X124121Y25879D01*
X123988Y25724D01*
X123881Y25549D01*
X123861Y25500D01*
X116000D01*
Y31500D01*
G37*
G36*
X121500Y36500D02*X112500D01*
Y42000D01*
X121500D01*
Y36500D01*
G37*
G54D12*X179957Y105000D02*Y115000D01*
X191950Y127600D02*Y119907D01*
X187043Y115000D01*
X160500Y106600D02*X165600D01*
X168000Y109000D01*
Y127600D01*
X156050D02*X191950D01*
G54D13*X160500Y113400D02*Y119000D01*
G54D14*X191950Y145500D02*X156050D01*
G54D12*X150000Y178500D02*Y132500D01*
X155000Y127500D01*
X187000Y59000D02*Y105000D01*
X103425Y61134D02*X107000D01*
X150000Y178500D02*X147500Y181000D01*
X37500D02*X147500D01*
G54D14*X81575Y56016D02*X73043D01*
X81575Y50898D02*X65000D01*
X81575Y45780D02*X71000D01*
X81575Y48339D02*X70000D01*
X81575Y43220D02*X74500D01*
G54D15*X81575Y35543D02*X84257D01*
X84800Y35000D01*
G54D14*X81575Y40661D02*X103425D01*
X78661D02*X77500Y39500D01*
X81575Y40661D02*X78661D01*
G54D15*X84800Y35000D02*Y25700D01*
X85500Y25000D02*X102500D01*
X103425Y25925D01*
Y27866D01*
G54D12*X81575Y30425D02*X78425D01*
X76543Y28543D01*
G54D14*X103425Y56016D02*X111957D01*
X81575Y53457D02*X103425D01*
Y50898D02*X120000D01*
X103425Y48339D02*X112000D01*
G54D12*X26500Y46000D02*X12957Y59543D01*
Y106500D01*
X20043Y105000D02*Y115000D01*
X12957D02*Y127457D01*
X35000Y149500D01*
Y178500D01*
X37500Y181000D01*
G54D15*X84800Y25700D02*X85500Y25000D01*
G54D12*X81575Y32984D02*X65527D01*
X52957Y27500D02*X49500D01*
X45500Y31500D01*
X60043Y18500D02*Y27500D01*
X65527Y32984D02*X60043Y27500D01*
Y9500D02*X69457D01*
X76543Y28543D02*Y9500D01*
X81500Y6000D02*Y27866D01*
X85957Y9500D02*X81500D01*
X47500Y9000D02*Y5500D01*
X48500Y4500D01*
X80000D01*
X81500Y6000D01*
X129500Y24957D02*X125043D01*
X123000Y27000D01*
X103425Y35543D02*X108457D01*
X103425Y32984D02*X107484D01*
X107500Y33000D01*
G54D14*X103425Y27866D02*X111457D01*
X103425Y30425D02*X106500D01*
G54D12*X108457Y35543D02*X111000Y33000D01*
X107500Y24000D02*Y11500D01*
X105500Y9500D01*
X93043D01*
X111000Y33000D02*X129500D01*
Y38957D02*Y32043D01*
G54D14*X103425Y43220D02*X110500D01*
X103425Y40661D02*X106339D01*
X103425Y45780D02*X115500D01*
G54D12*X111500Y35000D02*X122000D01*
X123000Y36000D01*
Y46000D01*
G54D14*X106339Y40661D02*X107500Y39500D01*
G54D12*X103425Y38102D02*X105898D01*
X106500Y37500D01*
X109000D01*
X111500Y35000D01*
G54D14*X107500Y39500D02*X115500D01*
G54D11*G36*
X22000Y90500D02*Y81500D01*
X31000D01*
Y90500D01*
X22000D01*
G37*
G54D16*X17000Y167000D03*
G54D11*G36*
X169000Y50500D02*Y41500D01*
X178000D01*
Y50500D01*
X169000D01*
G37*
G54D17*X173500Y66000D03*
Y86000D03*
G54D16*X17000Y17000D03*
G54D17*X26500Y66000D03*
Y46000D03*
G54D16*X183000Y167000D03*
Y17000D03*
G54D18*X160500Y106600D03*
G54D19*X159000Y108100D02*X162000D01*
G54D18*X160500Y113400D03*
G54D19*X159000Y111900D02*X162000D01*
G54D20*X154650Y127600D02*X157450D01*
X154650Y145400D02*X157450D01*
G54D21*X20043Y105393D02*Y104607D01*
X12957Y105393D02*Y104607D01*
Y115393D02*Y114607D01*
X20043Y115393D02*Y114607D01*
X179957Y105393D02*Y104607D01*
X187043Y105393D02*Y104607D01*
Y115393D02*Y114607D01*
X179957Y115393D02*Y114607D01*
G54D20*X190550Y127600D02*X193350D01*
X190550Y145400D02*X193350D01*
G54D21*X85957Y9893D02*Y9107D01*
X93043Y9893D02*Y9107D01*
G54D22*X80394Y35543D02*X82756D01*
X80394Y32984D02*X82756D01*
X80394Y30425D02*X82756D01*
X80394Y27866D02*X82756D01*
G54D23*X92500Y51980D02*Y37020D01*
G54D24*Y53378D02*Y35622D01*
G54D25*X90400Y168100D02*X94600D01*
G54D22*X80394Y61134D02*X82756D01*
X80394Y58575D02*X82756D01*
X80394Y56016D02*X82756D01*
X80394Y53457D02*X82756D01*
X80394Y50898D02*X82756D01*
G54D26*X72500Y81700D02*Y80700D01*
G54D21*X65957Y58393D02*Y57607D01*
X73043Y58393D02*Y57607D01*
G54D22*X102244Y27866D02*X104606D01*
X102244Y30425D02*X104606D01*
X102244Y32984D02*X104606D01*
G54D21*X111457Y28893D02*Y28107D01*
X118543Y28893D02*Y28107D01*
G54D22*X102244Y35543D02*X104606D01*
X102244Y38102D02*X104606D01*
G54D21*X129107Y38957D02*X129893D01*
X115107Y39457D02*X115893D01*
G54D22*X102244Y40661D02*X104606D01*
X102244Y43220D02*X104606D01*
X102244Y45780D02*X104606D01*
G54D21*X129107Y23957D02*X129893D01*
X129107Y31043D02*X129893D01*
G54D22*X80394Y48339D02*X82756D01*
X80394Y45780D02*X82756D01*
G54D21*X56107Y46043D02*X56893D01*
X66107D02*X66893D01*
G54D22*X80394Y43220D02*X82756D01*
X80394Y40661D02*X82756D01*
X80394Y38102D02*X82756D01*
G54D21*X66107Y38957D02*X66893D01*
X60043Y27893D02*Y27107D01*
X52957Y27893D02*Y27107D01*
Y18893D02*Y18107D01*
X60043Y18893D02*Y18107D01*
X56107Y38957D02*X56893D01*
X60043Y9893D02*Y9107D01*
X69457Y9893D02*Y9107D01*
X76543Y9893D02*Y9107D01*
X52957Y9893D02*Y9107D01*
G54D22*X102244Y48339D02*X104606D01*
X102244Y50898D02*X104606D01*
X102244Y53457D02*X104606D01*
X102244Y56016D02*X104606D01*
G54D21*X115107Y46543D02*X115893D01*
G54D22*X102244Y58575D02*X104606D01*
X102244Y61134D02*X104606D01*
G54D26*X112500Y81700D02*Y80700D01*
G54D21*X119043Y58393D02*Y57607D01*
X111957Y58393D02*Y57607D01*
G54D27*X140500Y79492D02*Y73193D01*
Y59807D02*Y53508D01*
G54D21*X129107Y46043D02*X129893D01*
G54D28*X88500Y28000D03*
X92500D03*
X96500D03*
X108000Y43000D03*
X107500Y33000D03*
Y24000D03*
X110500Y43000D03*
Y39500D03*
X123000Y30000D03*
Y27000D03*
X120000Y40500D03*
Y38000D03*
X108000Y51500D03*
X110500D03*
X74500D03*
X77000D03*
X74500Y43000D03*
X77000D03*
X48500Y14000D03*
X45500D03*
X51500Y37000D03*
X71000D03*
X74000Y38500D03*
X77000D03*
X71000Y40000D03*
X61500Y37000D03*
Y40000D03*
X92500Y61000D03*
X96500D03*
X88500D03*
X107000Y61134D03*
X92500Y64000D03*
X96500D03*
X88500D03*
X92500Y72500D03*
Y68500D03*
X100500Y66000D03*
X105500D03*
X109000D03*
X112500D03*
X88500Y96500D03*
X84500D03*
X80500D03*
X92500Y92500D03*
Y88500D03*
Y84500D03*
X76500Y96500D03*
X72500D03*
X68500D03*
X64500D03*
X60500D03*
X56500D03*
X52500D03*
X48500D03*
X44500D03*
X40500D03*
X92500Y80500D03*
Y76500D03*
X84500Y66000D03*
X72500D03*
X79500D03*
X76000D03*
X160500Y119000D03*
X166500Y145500D03*
X181500D03*
X92500Y96500D03*
X96500D03*
X100500D03*
X104500D03*
X108500D03*
X112500D03*
X116500D03*
X120500D03*
X124500D03*
X128500D03*
X132500D03*
X136500D03*
X139000Y84500D03*
X142500D03*
Y88000D03*
X139000D03*
Y91500D03*
X140500Y96500D03*
X144500D03*
X146000Y91500D03*
X142500D03*
X145500Y71500D03*
X149000D03*
X145500Y75000D03*
Y78500D03*
X149000D03*
Y75000D03*
X146000Y84500D03*
Y88000D03*
X149500Y84500D03*
Y88000D03*
X153000Y84500D03*
Y88000D03*
G54D29*G54D30*G54D31*G54D30*G54D31*G54D30*G54D31*M02*
