G04 start of page 9 for group -4078 idx -4078 *
G04 Title: (unknown), bottomsilk *
G04 Creator: pcb 20140316 *
G04 CreationDate: Thu 02 Jul 2020 08:37:42 PM GMT UTC *
G04 For: railfan *
G04 Format: Gerber/RS-274X *
G04 PCB-Dimensions (mil): 2000.00 1840.00 *
G04 PCB-Coordinate-Origin: lower left *
%MOIN*%
%FSLAX25Y25*%
%LNBOTTOMSILK*%
%ADD66C,0.0071*%
%ADD65C,0.0060*%
%ADD64C,0.0066*%
%ADD63C,0.0001*%
G54D63*G36*
X120457Y138209D02*Y138144D01*
X120197Y138133D01*
X119931Y138193D01*
X119584Y138573D01*
X119551Y139088D01*
X119681Y139321D01*
X119860Y139490D01*
X119926Y139522D01*
Y146353D01*
X119014Y147503D01*
Y149841D01*
X116198D01*
Y148903D01*
X117604Y147123D01*
X119014Y145344D01*
Y140770D01*
X117658Y139414D01*
X114267D01*
Y144302D01*
X114169Y144372D01*
X113871Y144882D01*
X114028Y145447D01*
X114630Y145718D01*
X115206Y145409D01*
X115341Y144893D01*
X115097Y144427D01*
X114972Y144334D01*
X114967Y144172D01*
X114961Y143716D01*
Y143043D01*
X114956Y142219D01*
Y140097D01*
X117376D01*
X118352Y141074D01*
Y145083D01*
X116931Y146868D01*
X115515Y148658D01*
Y149250D01*
X115509Y149836D01*
X114598D01*
Y150622D01*
X115509D01*
Y151995D01*
X114598D01*
Y152755D01*
X115509D01*
Y154149D01*
X114598D01*
Y154908D01*
X115509D01*
Y156281D01*
X114598D01*
Y157041D01*
X115509D01*
Y158435D01*
X114598D01*
Y159194D01*
X115509D01*
Y160594D01*
X114598D01*
Y161354D01*
X115509D01*
Y162596D01*
X116198D01*
Y161354D01*
X119014D01*
Y162596D01*
X119671D01*
Y161354D01*
X120582D01*
Y160594D01*
X119681D01*
X118998Y160648D01*
X116209D01*
X116204Y159959D01*
X116193Y159265D01*
X117593D01*
X118276Y159270D01*
X118710Y159276D01*
X118933Y159287D01*
X118998Y159297D01*
X119009Y159515D01*
X119003Y159992D01*
X118998Y160648D01*
X119681Y160594D01*
Y159222D01*
X120582D01*
Y158462D01*
X119671D01*
X119014Y158505D01*
X116193D01*
X116204Y157816D01*
Y157800D01*
X116209Y157111D01*
X117593D01*
X118580Y157117D01*
X118992Y157127D01*
X119009Y157344D01*
X119014Y157827D01*
Y158505D01*
X119671Y158462D01*
X119681Y157084D01*
X120582D01*
Y156324D01*
X119671D01*
Y154952D01*
X119014Y154979D01*
Y156352D01*
X116198D01*
Y154979D01*
X119014D01*
X119671Y154952D01*
X120582D01*
Y154192D01*
X119681D01*
X118998Y154219D01*
X116198D01*
Y152836D01*
X117593D01*
X118276Y152841D01*
X118710Y152847D01*
X118933Y152858D01*
X118998Y152868D01*
X119009Y153086D01*
X119003Y153557D01*
X118998Y154219D01*
X119681Y154192D01*
Y152825D01*
X120582D01*
Y152066D01*
X119671D01*
Y150693D01*
X119014D01*
Y152066D01*
X116198D01*
Y150693D01*
X120582D01*
Y149906D01*
X119671D01*
Y147839D01*
X120143Y147248D01*
X120609Y146656D01*
Y144351D01*
X122258D01*
Y145127D01*
X122161Y145197D01*
X121922Y145506D01*
X121868Y145881D01*
X121987Y146201D01*
X122210Y146423D01*
X122503Y146526D01*
X122839Y146494D01*
X123127Y146315D01*
X123311Y146027D01*
X123322Y145593D01*
X123213Y145376D01*
X123045Y145197D01*
X122947Y145127D01*
X122942Y144400D01*
Y143667D01*
X120609D01*
Y142170D01*
X121276Y142175D01*
X121944D01*
X122009Y142273D01*
X122318Y142512D01*
X122698Y142566D01*
X123013Y142446D01*
X123230Y142224D01*
X123338Y141931D01*
X123311Y141600D01*
X123127Y141307D01*
X122828Y141117D01*
X122400D01*
X122047Y141340D01*
X121955Y141464D01*
X121759Y141481D01*
X121282Y141486D01*
X120609D01*
Y139604D01*
X120739Y139490D01*
X120935Y139240D01*
X120989Y138925D01*
X120853Y138480D01*
X120457Y138209D01*
G37*
G36*
X104615Y139229D02*Y139235D01*
X103243Y139240D01*
X101865Y139414D01*
X100400Y139859D01*
X99130Y140537D01*
X98088Y141448D01*
X97291Y142566D01*
X96781Y143830D01*
X96526Y145230D01*
X96532Y146662D01*
X96808Y148034D01*
X97296Y149174D01*
X98023Y150226D01*
X98989Y151214D01*
X100215Y152142D01*
X100693Y152451D01*
X101252Y152782D01*
X101935Y153167D01*
X102803Y153639D01*
X103574Y154062D01*
X104149Y154388D01*
X104588Y154664D01*
X104941Y154908D01*
X105668Y155576D01*
X106015Y156227D01*
X106053Y156639D01*
X106015Y157122D01*
X105831Y157719D01*
X105494Y158180D01*
X104637Y158652D01*
X103986Y158701D01*
X103351Y158636D01*
X102402Y158104D01*
X101642Y157035D01*
X101382Y156460D01*
X101154Y155858D01*
X101078Y155657D01*
X100899Y155701D01*
X100421Y155831D01*
X99716Y156032D01*
X98853Y156276D01*
X96651Y156916D01*
X96711Y157171D01*
X97204Y158674D01*
X97931Y159976D01*
X98870Y161061D01*
X100009Y161907D01*
X101148Y162433D01*
X102423Y162759D01*
X103807Y162884D01*
X105266Y162802D01*
X107138Y162363D01*
X108668Y161538D01*
X109829Y160355D01*
X110589Y158831D01*
X110882Y157632D01*
X110974Y156346D01*
X110844Y155033D01*
X110426Y153850D01*
X109889Y152966D01*
X109140Y152125D01*
X108483Y151545D01*
X107708Y150980D01*
X106693Y150351D01*
X105315Y149575D01*
X104621Y149196D01*
X104105Y148903D01*
X103698Y148658D01*
X103335Y148425D01*
X102076Y147378D01*
X101479Y146309D01*
X100877Y146483D01*
X101561Y147747D01*
X102993Y148957D01*
X103367Y149196D01*
X103791Y149451D01*
X104333Y149760D01*
X105060Y150161D01*
X106145Y150769D01*
X106948Y151246D01*
X107578Y151659D01*
X108120Y152066D01*
X108983Y152858D01*
X109623Y153699D01*
X110062Y154605D01*
X110301Y155587D01*
X110339Y156297D01*
X110312Y157073D01*
X110111Y158223D01*
X109742Y159249D01*
X109200Y160133D01*
X108500Y160860D01*
X107100Y161696D01*
X105353Y162157D01*
X103432Y162243D01*
X101675Y161940D01*
X100421Y161413D01*
X99347Y160638D01*
X98457Y159634D01*
X97779Y158419D01*
X97660Y158104D01*
X97535Y157762D01*
X97448Y157485D01*
X97421Y157361D01*
X97562Y157317D01*
X97920Y157214D01*
X98419Y157062D01*
X98995Y156894D01*
X99581Y156726D01*
X100091Y156574D01*
X100470Y156471D01*
X100633Y156422D01*
X100693Y156466D01*
X100779Y156666D01*
X101273Y157686D01*
X101848Y158451D01*
X102516Y158977D01*
X103286Y159270D01*
X103861Y159336D01*
X104442Y159319D01*
X105397Y159037D01*
X106102Y158473D01*
X106536Y157659D01*
X106682Y156617D01*
X106514Y155749D01*
X105966Y154963D01*
X105537Y154561D01*
X104984Y154160D01*
X104192Y153682D01*
X103047Y153047D01*
X101555Y152217D01*
X100481Y151556D01*
X99673Y150959D01*
X98973Y150313D01*
X98289Y149532D01*
X97768Y148713D01*
X97410Y147823D01*
X97183Y146836D01*
X97134Y145902D01*
X97183Y144947D01*
X97340Y144161D01*
X97568Y143466D01*
X98034Y142560D01*
X98637Y141779D01*
X99391Y141123D01*
X100291Y140591D01*
X101452Y140157D01*
X102782Y139902D01*
X103205Y139869D01*
X103753Y139853D01*
X104301D01*
X104697Y139864D01*
X106568Y140282D01*
X108142Y141150D01*
X109428Y142479D01*
X110426Y144258D01*
X110551Y144584D01*
X110697Y144991D01*
X110822Y145360D01*
X110871Y145544D01*
Y145577D01*
X110708Y145626D01*
X110171Y145745D01*
X109021Y145989D01*
X108391Y146125D01*
X107865Y146239D01*
X107507Y146315D01*
X107355Y146342D01*
X107306Y146326D01*
X107257Y146157D01*
X107111Y145653D01*
X106910Y145127D01*
X106118Y143884D01*
X105049Y143059D01*
X103720Y142756D01*
X102684Y142924D01*
X101827Y143385D01*
X101197Y144117D01*
X100839Y145067D01*
X100877Y146483D01*
X101479Y146309D01*
X101425Y145712D01*
X101479Y145083D01*
X102038Y144047D01*
X103058Y143461D01*
X103313Y143418D01*
X103704Y143401D01*
X104100Y143418D01*
X104338Y143461D01*
X105109Y143824D01*
X105755Y144432D01*
X106270Y145257D01*
X106633Y146282D01*
X106715Y146618D01*
X106764Y146868D01*
X106818Y147080D01*
X107019Y147047D01*
X107545Y146944D01*
X108321Y146781D01*
X109254Y146581D01*
X111674Y146065D01*
X111576Y145696D01*
X110930Y143841D01*
X110068Y142278D01*
X109124Y141171D01*
X108017Y140293D01*
X106433Y139571D01*
X104615Y139229D01*
G37*
G36*
X94030Y151035D02*Y139522D01*
X81346D01*
Y143960D01*
X89110D01*
X89104Y146591D01*
X89093Y149223D01*
X83429D01*
Y153633D01*
X89110D01*
Y158153D01*
X81650D01*
Y162564D01*
X94030D01*
Y151035D01*
X93390Y151040D01*
X93379Y161940D01*
X82284D01*
Y158771D01*
X89744D01*
Y152988D01*
X84059D01*
Y149819D01*
X89744D01*
Y143298D01*
X81970D01*
Y140141D01*
X93396D01*
X93390Y151040D01*
X94030Y151035D01*
G37*
G36*
X116893Y141123D02*Y141117D01*
X116350Y141150D01*
X115965Y141524D01*
X115933Y142023D01*
X116193Y142419D01*
X116296Y142490D01*
Y145387D01*
X115385Y146543D01*
X114468Y147698D01*
X113480D01*
X113355Y147562D01*
X112797Y147313D01*
X112411Y147427D01*
X112135Y147714D01*
X112070Y147986D01*
X112086Y148268D01*
X112222Y148512D01*
X112444Y148702D01*
X112596Y148772D01*
X112797Y148778D01*
X113003Y148767D01*
X113155Y148702D01*
X113383Y148507D01*
X113469Y148387D01*
X114799D01*
X115889Y147004D01*
X116985Y145626D01*
Y144052D01*
X116990Y142940D01*
X117001Y142479D01*
X117132Y142387D01*
X117359Y142034D01*
X117354Y141600D01*
X117175Y141312D01*
X116893Y141123D01*
G37*
G36*
X118059Y165282D02*X117620Y165260D01*
X117169Y165282D01*
X116518Y165455D01*
X115916Y165775D01*
X115401Y166220D01*
X114994Y166768D01*
X114728Y167441D01*
X114620Y168168D01*
X114690Y168895D01*
X114923Y169579D01*
X115347Y170197D01*
X115900Y170702D01*
X116844Y171129D01*
X117853Y171216D01*
X118824Y170973D01*
X119671Y170398D01*
X120191Y169747D01*
X120501Y168982D01*
X120582Y168363D01*
X120544Y167723D01*
X120257Y166860D01*
X119709Y166128D01*
X118944Y165569D01*
X118059Y165282D01*
G37*
G54D64*X119680Y111700D02*X121838D01*
X123000Y112862D02*X121838Y111700D01*
X123000Y112862D02*Y117178D01*
X121838Y118340D01*
X119680D02*X121838D01*
X114368Y111700D02*X116526D01*
X117688Y112862D02*X116526Y111700D01*
X117688Y112862D02*Y117178D01*
X116526Y118340D01*
X114368D02*X116526D01*
X106068Y111700D02*X109388D01*
X106068D02*X105238Y112530D01*
Y114522D01*
X106068Y115352D02*X105238Y114522D01*
X106068Y115352D02*X108558D01*
Y111700D02*Y118340D01*
X106068D02*X109388D01*
X106068D02*X105238Y117510D01*
Y116182D02*Y117510D01*
X106068Y115352D02*X105238Y116182D01*
X103246Y118340D02*X101586Y115020D01*
X99926Y118340D01*
X101586Y111700D02*Y115020D01*
X94614D02*X97934D01*
X89302Y118340D02*X88472Y117510D01*
X89302Y118340D02*X91792D01*
X92622Y117510D02*X91792Y118340D01*
X92622Y115850D02*Y117510D01*
Y115850D02*X91792Y115020D01*
X89302D02*X91792D01*
X89302D02*X88472Y114190D01*
Y112530D02*Y114190D01*
X89302Y111700D02*X88472Y112530D01*
X89302Y111700D02*X91792D01*
X92622Y112530D02*X91792Y111700D01*
X86480D02*Y116680D01*
X85318Y118340D01*
X83492D02*X85318D01*
X83492D02*X82330Y116680D01*
Y111700D02*Y116680D01*
Y115020D02*X86480D01*
X120000Y102030D02*X119170Y101200D01*
X120000Y107010D02*X119170Y107840D01*
X120000Y102030D02*Y107010D01*
X113858Y101200D02*X116016D01*
X117178Y102362D02*X116016Y101200D01*
X117178Y102362D02*Y106678D01*
X116016Y107840D01*
X113858D02*X116016D01*
X111866D02*X111036Y107010D01*
Y102030D02*Y107010D01*
X111866Y101200D02*X111036Y102030D01*
X106056Y107010D02*X105226Y107840D01*
X102736D02*X105226D01*
X102736D02*X101906Y107010D01*
Y105350D02*Y107010D01*
X106056Y101200D02*X101906Y105350D01*
Y101200D02*X106056D01*
X99914Y102030D02*X99084Y101200D01*
X99914Y102030D02*Y107010D01*
X99084Y107840D01*
X97424D02*X99084D01*
X97424D02*X96594Y107010D01*
Y102030D02*Y107010D01*
X97424Y101200D02*X96594Y102030D01*
X97424Y101200D02*X99084D01*
X99914Y102860D02*X96594Y106180D01*
X94602Y107010D02*X93772Y107840D01*
X91282D02*X93772D01*
X91282D02*X90452Y107010D01*
Y105350D02*Y107010D01*
X94602Y101200D02*X90452Y105350D01*
Y101200D02*X94602D01*
X88460Y102030D02*X87630Y101200D01*
X88460Y102030D02*Y107010D01*
X87630Y107840D01*
X85970D02*X87630D01*
X85970D02*X85140Y107010D01*
Y102030D02*Y107010D01*
X85970Y101200D02*X85140Y102030D01*
X85970Y101200D02*X87630D01*
X88460Y102860D02*X85140Y106180D01*
G54D65*X143000Y125850D02*Y131570D01*
Y127995D02*X142285Y128710D01*
X140855D02*X142285D01*
X140855D02*X140140Y127995D01*
Y125850D02*Y127995D01*
X137709Y126565D02*Y131570D01*
Y126565D02*X136994Y125850D01*
Y129425D02*X138424D01*
X134849Y126565D02*Y131570D01*
Y126565D02*X134134Y125850D01*
Y129425D02*X135564D01*
X131989Y123705D02*Y127995D01*
X132704Y128710D02*X131989Y127995D01*
X131274Y128710D01*
X129844D02*X131274D01*
X129844D02*X129129Y127995D01*
Y126565D02*Y127995D01*
X129844Y125850D02*X129129Y126565D01*
X129844Y125850D02*X131274D01*
X131989Y126565D02*X131274Y125850D01*
X124553D02*X126698D01*
X124553D02*X123838Y126565D01*
X124553Y127280D02*X123838Y126565D01*
X124553Y127280D02*X126698D01*
X127413Y127995D02*X126698Y127280D01*
X127413Y127995D02*X126698Y128710D01*
X124553D02*X126698D01*
X124553D02*X123838Y127995D01*
X127413Y126565D02*X126698Y125850D01*
X121407Y129425D02*X122122D01*
X121407Y127995D02*X122122D01*
X119691Y126565D02*X115401Y130855D01*
X113685Y126565D02*X109395Y130855D01*
G54D66*X107679Y129997D02*Y130140D01*
G54D65*Y125850D02*Y127995D01*
X104104Y128710D02*X103389Y127995D01*
X104104Y128710D02*X105534D01*
X106249Y127995D02*X105534Y128710D01*
X106249Y126565D02*Y127995D01*
Y126565D02*X105534Y125850D01*
X103389Y126565D02*Y128710D01*
Y126565D02*X102674Y125850D01*
X104104D02*X105534D01*
X104104D02*X103389Y126565D01*
X98098Y125850D02*X100243D01*
X98098D02*X97383Y126565D01*
X98098Y127280D02*X97383Y126565D01*
X98098Y127280D02*X100243D01*
X100958Y127995D02*X100243Y127280D01*
X100958Y127995D02*X100243Y128710D01*
X98098D02*X100243D01*
X98098D02*X97383Y127995D01*
X100958Y126565D02*X100243Y125850D01*
X92807Y128710D02*X94952D01*
X95667Y127995D02*X94952Y128710D01*
X95667Y126565D02*Y127995D01*
Y126565D02*X94952Y125850D01*
X92807D02*X94952D01*
X88946Y128710D02*X88231Y127995D01*
X88946Y128710D02*X90376D01*
X91091Y127995D02*X90376Y128710D01*
X91091Y126565D02*Y127995D01*
Y126565D02*X90376Y125850D01*
X88231Y126565D02*Y128710D01*
Y126565D02*X87516Y125850D01*
X88946D02*X90376D01*
X88946D02*X88231Y126565D01*
X85800D02*Y131570D01*
Y126565D02*X85085Y125850D01*
X80795D02*X82940D01*
X83655Y126565D02*X82940Y125850D01*
X83655Y126565D02*Y127995D01*
X82940Y128710D01*
X81510D02*X82940D01*
X81510D02*X80795Y127995D01*
Y127280D02*X83655D01*
X80795D02*Y127995D01*
X76219Y125850D02*Y131570D01*
X76934Y125850D02*X76219Y126565D01*
X76934Y125850D02*X78364D01*
X79079Y126565D02*X78364Y125850D01*
X79079Y126565D02*Y127995D01*
X78364Y128710D01*
X76934D02*X78364D01*
X76934D02*X76219Y127995D01*
X73788Y125850D02*X74503D01*
X69212Y128710D02*X71357D01*
X72072Y127995D02*X71357Y128710D01*
X72072Y126565D02*Y127995D01*
Y126565D02*X71357Y125850D01*
X69212D02*X71357D01*
X67496Y126565D02*Y127995D01*
X66781Y128710D01*
X65351D02*X66781D01*
X65351D02*X64636Y127995D01*
Y126565D02*Y127995D01*
X65351Y125850D02*X64636Y126565D01*
X65351Y125850D02*X66781D01*
X67496Y126565D02*X66781Y125850D01*
X62205D02*Y127995D01*
X61490Y128710D01*
X60775D02*X61490D01*
X60775D02*X60060Y127995D01*
Y125850D02*Y127995D01*
X59345Y128710D01*
X58630D02*X59345D01*
X58630D02*X57915Y127995D01*
Y125850D02*Y127995D01*
X62920Y128710D02*X62205Y127995D01*
M02*
