G04 start of page 3 for group 1 idx 1 *
G04 Title: (unknown), bottom *
G04 Creator: pcb 20140316 *
G04 CreationDate: Thu 02 Jul 2020 08:37:42 PM GMT UTC *
G04 For: railfan *
G04 Format: Gerber/RS-274X *
G04 PCB-Dimensions (mil): 2000.00 1840.00 *
G04 PCB-Coordinate-Origin: lower left *
%MOIN*%
%FSLAX25Y25*%
%LNBOTTOM*%
%ADD40C,0.1285*%
%ADD39C,0.0550*%
%ADD38C,0.0120*%
%ADD37C,0.0240*%
%ADD36C,0.0900*%
%ADD35C,0.2937*%
%ADD34C,0.0100*%
%ADD33C,0.0250*%
%ADD32C,0.0001*%
G54D32*G36*
X173500Y4488D02*X173753Y4272D01*
X175858Y2982D01*
X178138Y2038D01*
X178295Y2000D01*
X173500D01*
Y4488D01*
G37*
G36*
X178426Y151969D02*X180539Y151461D01*
X183000Y151268D01*
X185461Y151461D01*
X187862Y152038D01*
X190142Y152982D01*
X192247Y154272D01*
X194124Y155876D01*
X195728Y157753D01*
X197018Y159858D01*
X197962Y162138D01*
X198000Y162295D01*
Y21705D01*
X197962Y21862D01*
X197018Y24142D01*
X195728Y26247D01*
X194124Y28124D01*
X192247Y29728D01*
X190142Y31018D01*
X187862Y31962D01*
X185461Y32539D01*
X183000Y32732D01*
X180539Y32539D01*
X178426Y32031D01*
Y40060D01*
X178465Y40069D01*
X178683Y40159D01*
X178884Y40283D01*
X179064Y40436D01*
X179217Y40616D01*
X179341Y40817D01*
X179431Y41035D01*
X179486Y41265D01*
X179500Y41500D01*
X179486Y50735D01*
X179431Y50965D01*
X179341Y51183D01*
X179217Y51384D01*
X179064Y51564D01*
X178884Y51717D01*
X178683Y51841D01*
X178465Y51931D01*
X178426Y51940D01*
Y62555D01*
X178863Y63268D01*
X179224Y64140D01*
X179444Y65058D01*
X179500Y66000D01*
X179444Y66942D01*
X179224Y67860D01*
X178863Y68732D01*
X178426Y69445D01*
Y82803D01*
X178430Y82805D01*
X178533Y82864D01*
X178625Y82938D01*
X178704Y83025D01*
X178766Y83125D01*
X179011Y83612D01*
X179205Y84122D01*
X179352Y84648D01*
X179451Y85184D01*
X179500Y85727D01*
Y86273D01*
X179451Y86816D01*
X179352Y87352D01*
X179205Y87878D01*
X179011Y88388D01*
X178772Y88878D01*
X178708Y88978D01*
X178628Y89066D01*
X178535Y89140D01*
X178432Y89199D01*
X178426Y89202D01*
Y151969D01*
G37*
G36*
Y51940D02*X178235Y51986D01*
X178000Y52000D01*
X173500Y51993D01*
Y59981D01*
X174442Y60056D01*
X175360Y60276D01*
X176232Y60637D01*
X177038Y61131D01*
X177756Y61744D01*
X178369Y62462D01*
X178426Y62555D01*
Y51940D01*
G37*
G36*
Y32031D02*X178138Y31962D01*
X175858Y31018D01*
X173753Y29728D01*
X173500Y29512D01*
Y40007D01*
X178235Y40014D01*
X178426Y40060D01*
Y32031D01*
G37*
G36*
X173500Y154488D02*X173753Y154272D01*
X175858Y152982D01*
X178138Y152038D01*
X178426Y151969D01*
Y89202D01*
X178321Y89242D01*
X178205Y89266D01*
X178087Y89272D01*
X177968Y89260D01*
X177854Y89229D01*
X177745Y89180D01*
X177646Y89115D01*
X177558Y89035D01*
X177483Y88943D01*
X177424Y88840D01*
X177382Y88729D01*
X177357Y88613D01*
X177351Y88494D01*
X177364Y88376D01*
X177395Y88261D01*
X177446Y88154D01*
X177629Y87789D01*
X177774Y87407D01*
X177884Y87013D01*
X177958Y86611D01*
X177995Y86204D01*
Y85796D01*
X177958Y85389D01*
X177884Y84987D01*
X177774Y84593D01*
X177629Y84211D01*
X177450Y83844D01*
X177400Y83737D01*
X177369Y83623D01*
X177356Y83506D01*
X177362Y83388D01*
X177386Y83272D01*
X177428Y83162D01*
X177487Y83060D01*
X177561Y82968D01*
X177649Y82889D01*
X177748Y82824D01*
X177855Y82776D01*
X177969Y82745D01*
X178087Y82732D01*
X178205Y82738D01*
X178320Y82763D01*
X178426Y82803D01*
Y69445D01*
X178369Y69538D01*
X177756Y70256D01*
X177038Y70869D01*
X176232Y71363D01*
X175360Y71724D01*
X174442Y71944D01*
X173500Y72019D01*
Y80000D01*
X173773D01*
X174316Y80049D01*
X174852Y80148D01*
X175378Y80295D01*
X175888Y80489D01*
X176378Y80728D01*
X176478Y80792D01*
X176566Y80872D01*
X176640Y80965D01*
X176699Y81068D01*
X176742Y81179D01*
X176766Y81295D01*
X176772Y81413D01*
X176760Y81532D01*
X176729Y81646D01*
X176680Y81755D01*
X176615Y81854D01*
X176535Y81942D01*
X176443Y82017D01*
X176340Y82076D01*
X176229Y82118D01*
X176113Y82143D01*
X175994Y82149D01*
X175876Y82136D01*
X175761Y82105D01*
X175654Y82054D01*
X175289Y81871D01*
X174907Y81726D01*
X174513Y81616D01*
X174111Y81542D01*
X173704Y81505D01*
X173500D01*
Y90495D01*
X173704D01*
X174111Y90458D01*
X174513Y90384D01*
X174907Y90274D01*
X175289Y90129D01*
X175656Y89950D01*
X175763Y89900D01*
X175877Y89869D01*
X175994Y89856D01*
X176112Y89862D01*
X176228Y89886D01*
X176338Y89928D01*
X176440Y89987D01*
X176532Y90061D01*
X176611Y90149D01*
X176676Y90248D01*
X176724Y90355D01*
X176755Y90469D01*
X176768Y90587D01*
X176762Y90705D01*
X176737Y90820D01*
X176695Y90930D01*
X176636Y91033D01*
X176562Y91125D01*
X176475Y91204D01*
X176375Y91266D01*
X175888Y91511D01*
X175378Y91705D01*
X174852Y91852D01*
X174316Y91951D01*
X173773Y92000D01*
X173500D01*
Y154488D01*
G37*
G36*
Y182000D02*X178295D01*
X178138Y181962D01*
X175858Y181018D01*
X173753Y179728D01*
X173500Y179512D01*
Y182000D01*
G37*
G36*
X168574Y10843D02*X168982Y9858D01*
X170272Y7753D01*
X171876Y5876D01*
X173500Y4488D01*
Y2000D01*
X168574D01*
Y10843D01*
G37*
G36*
Y40060D02*X168765Y40014D01*
X169000Y40000D01*
X173500Y40007D01*
Y29512D01*
X171876Y28124D01*
X170272Y26247D01*
X168982Y24142D01*
X168574Y23157D01*
Y40060D01*
G37*
G36*
Y62555D02*X168631Y62462D01*
X169244Y61744D01*
X169962Y61131D01*
X170768Y60637D01*
X171640Y60276D01*
X172558Y60056D01*
X173500Y59981D01*
Y51993D01*
X168765Y51986D01*
X168574Y51940D01*
Y62555D01*
G37*
G36*
Y160843D02*X168982Y159858D01*
X170272Y157753D01*
X171876Y155876D01*
X173500Y154488D01*
Y92000D01*
X173227D01*
X172684Y91951D01*
X172148Y91852D01*
X171622Y91705D01*
X171112Y91511D01*
X170622Y91272D01*
X170522Y91208D01*
X170434Y91128D01*
X170360Y91035D01*
X170301Y90932D01*
X170258Y90821D01*
X170234Y90705D01*
X170228Y90587D01*
X170240Y90468D01*
X170271Y90354D01*
X170320Y90245D01*
X170385Y90146D01*
X170465Y90058D01*
X170557Y89983D01*
X170660Y89924D01*
X170771Y89882D01*
X170887Y89857D01*
X171006Y89851D01*
X171124Y89864D01*
X171239Y89895D01*
X171346Y89946D01*
X171711Y90129D01*
X172093Y90274D01*
X172487Y90384D01*
X172889Y90458D01*
X173296Y90495D01*
X173500D01*
Y81505D01*
X173296D01*
X172889Y81542D01*
X172487Y81616D01*
X172093Y81726D01*
X171711Y81871D01*
X171344Y82050D01*
X171237Y82100D01*
X171123Y82131D01*
X171006Y82144D01*
X170888Y82138D01*
X170772Y82114D01*
X170662Y82072D01*
X170560Y82013D01*
X170468Y81939D01*
X170389Y81851D01*
X170324Y81752D01*
X170276Y81645D01*
X170245Y81531D01*
X170232Y81413D01*
X170238Y81295D01*
X170263Y81180D01*
X170305Y81070D01*
X170364Y80967D01*
X170438Y80875D01*
X170525Y80796D01*
X170625Y80734D01*
X171112Y80489D01*
X171622Y80295D01*
X172148Y80148D01*
X172684Y80049D01*
X173227Y80000D01*
X173500D01*
Y72019D01*
X172558Y71944D01*
X171640Y71724D01*
X170768Y71363D01*
X169962Y70869D01*
X169244Y70256D01*
X168631Y69538D01*
X168574Y69445D01*
Y82798D01*
X168679Y82758D01*
X168795Y82734D01*
X168913Y82728D01*
X169032Y82740D01*
X169146Y82771D01*
X169255Y82820D01*
X169354Y82885D01*
X169442Y82965D01*
X169517Y83057D01*
X169576Y83160D01*
X169618Y83271D01*
X169643Y83387D01*
X169649Y83506D01*
X169636Y83624D01*
X169605Y83739D01*
X169554Y83846D01*
X169371Y84211D01*
X169226Y84593D01*
X169116Y84987D01*
X169042Y85389D01*
X169005Y85796D01*
Y86204D01*
X169042Y86611D01*
X169116Y87013D01*
X169226Y87407D01*
X169371Y87789D01*
X169550Y88156D01*
X169600Y88263D01*
X169631Y88377D01*
X169644Y88494D01*
X169638Y88612D01*
X169614Y88728D01*
X169572Y88838D01*
X169513Y88940D01*
X169439Y89032D01*
X169351Y89111D01*
X169252Y89176D01*
X169145Y89224D01*
X169031Y89255D01*
X168913Y89268D01*
X168795Y89262D01*
X168680Y89237D01*
X168574Y89197D01*
Y160843D01*
G37*
G36*
Y182000D02*X173500D01*
Y179512D01*
X171876Y178124D01*
X170272Y176247D01*
X168982Y174142D01*
X168574Y173157D01*
Y182000D01*
G37*
G36*
X109250D02*X168574D01*
Y173157D01*
X168038Y171862D01*
X167461Y169461D01*
X167268Y167000D01*
X167461Y164539D01*
X168038Y162138D01*
X168574Y160843D01*
Y89197D01*
X168570Y89195D01*
X168467Y89136D01*
X168375Y89062D01*
X168296Y88975D01*
X168234Y88875D01*
X167989Y88388D01*
X167795Y87878D01*
X167648Y87352D01*
X167549Y86816D01*
X167500Y86273D01*
Y85727D01*
X167549Y85184D01*
X167648Y84648D01*
X167795Y84122D01*
X167989Y83612D01*
X168228Y83122D01*
X168292Y83022D01*
X168372Y82934D01*
X168465Y82860D01*
X168568Y82801D01*
X168574Y82798D01*
Y69445D01*
X168137Y68732D01*
X167776Y67860D01*
X167556Y66942D01*
X167481Y66000D01*
X167556Y65058D01*
X167776Y64140D01*
X168137Y63268D01*
X168574Y62555D01*
Y51940D01*
X168535Y51931D01*
X168317Y51841D01*
X168116Y51717D01*
X167936Y51564D01*
X167783Y51384D01*
X167659Y51183D01*
X167569Y50965D01*
X167514Y50735D01*
X167500Y50500D01*
X167514Y41265D01*
X167569Y41035D01*
X167659Y40817D01*
X167783Y40616D01*
X167936Y40436D01*
X168116Y40283D01*
X168317Y40159D01*
X168535Y40069D01*
X168574Y40060D01*
Y23157D01*
X168038Y21862D01*
X167461Y19461D01*
X167268Y17000D01*
X167461Y14539D01*
X168038Y12138D01*
X168574Y10843D01*
Y2000D01*
X109250D01*
Y23028D01*
X109288Y23089D01*
X109408Y23380D01*
X109481Y23686D01*
X109500Y24000D01*
X109481Y24314D01*
X109408Y24620D01*
X109288Y24911D01*
X109250Y24972D01*
Y32028D01*
X109288Y32089D01*
X109408Y32380D01*
X109481Y32686D01*
X109500Y33000D01*
X109481Y33314D01*
X109408Y33620D01*
X109288Y33911D01*
X109250Y33972D01*
Y40950D01*
X110420D01*
X110500Y40944D01*
X110821Y40969D01*
X110822Y40969D01*
X111135Y41044D01*
X111434Y41168D01*
X111709Y41336D01*
X111954Y41546D01*
X112164Y41791D01*
X112332Y42066D01*
X112456Y42365D01*
X112531Y42678D01*
X112556Y43000D01*
X112550Y43080D01*
Y51420D01*
X112556Y51500D01*
X112531Y51822D01*
X112456Y52135D01*
X112332Y52434D01*
X112164Y52709D01*
X111954Y52954D01*
X111709Y53164D01*
X111434Y53332D01*
X111135Y53456D01*
X110822Y53531D01*
X110821Y53531D01*
X110500Y53556D01*
X110420Y53550D01*
X109250D01*
Y182000D01*
G37*
G36*
Y24972D02*X109123Y25179D01*
X108919Y25419D01*
X108800Y25520D01*
Y31480D01*
X108919Y31581D01*
X109123Y31821D01*
X109250Y32028D01*
Y24972D01*
G37*
G36*
X75750Y182000D02*X109250D01*
Y53550D01*
X108080D01*
X108000Y53556D01*
X107678Y53531D01*
X107365Y53456D01*
X107066Y53332D01*
X106791Y53164D01*
X106546Y52954D01*
X106336Y52709D01*
X106168Y52434D01*
X106044Y52135D01*
X105969Y51822D01*
X105944Y51500D01*
X105950Y51420D01*
Y43080D01*
X105944Y43000D01*
X105969Y42678D01*
X106044Y42365D01*
X106168Y42066D01*
X106336Y41791D01*
X106546Y41546D01*
X106791Y41336D01*
X107066Y41168D01*
X107365Y41044D01*
X107678Y40969D01*
X107679Y40969D01*
X108000Y40944D01*
X108080Y40950D01*
X109250D01*
Y33972D01*
X109123Y34179D01*
X108919Y34419D01*
X108679Y34623D01*
X108411Y34788D01*
X108120Y34908D01*
X107814Y34981D01*
X107500Y35006D01*
X107186Y34981D01*
X106880Y34908D01*
X106589Y34788D01*
X106321Y34623D01*
X106081Y34419D01*
X105877Y34179D01*
X105712Y33911D01*
X105592Y33620D01*
X105519Y33314D01*
X105494Y33000D01*
X105519Y32686D01*
X105592Y32380D01*
X105712Y32089D01*
X105877Y31821D01*
X106081Y31581D01*
X106200Y31480D01*
Y25520D01*
X106081Y25419D01*
X105877Y25179D01*
X105712Y24911D01*
X105592Y24620D01*
X105519Y24314D01*
X105494Y24000D01*
X105519Y23686D01*
X105592Y23380D01*
X105712Y23089D01*
X105877Y22821D01*
X106081Y22581D01*
X106321Y22377D01*
X106589Y22212D01*
X106880Y22092D01*
X107186Y22019D01*
X107500Y21994D01*
X107814Y22019D01*
X108120Y22092D01*
X108411Y22212D01*
X108679Y22377D01*
X108919Y22581D01*
X109123Y22821D01*
X109250Y23028D01*
Y2000D01*
X75750D01*
Y40950D01*
X76920D01*
X77000Y40944D01*
X77321Y40969D01*
X77322Y40969D01*
X77635Y41044D01*
X77934Y41168D01*
X78209Y41336D01*
X78454Y41546D01*
X78664Y41791D01*
X78832Y42066D01*
X78956Y42365D01*
X79031Y42678D01*
X79056Y43000D01*
X79050Y43080D01*
Y51420D01*
X79056Y51500D01*
X79031Y51822D01*
X78956Y52135D01*
X78832Y52434D01*
X78664Y52709D01*
X78454Y52954D01*
X78209Y53164D01*
X77934Y53332D01*
X77635Y53456D01*
X77322Y53531D01*
X77321Y53531D01*
X77000Y53556D01*
X76920Y53550D01*
X75750D01*
Y182000D01*
G37*
G36*
X31750Y161626D02*X31962Y162138D01*
X32539Y164539D01*
X32684Y167000D01*
X32539Y169461D01*
X31962Y171862D01*
X31750Y172374D01*
Y182000D01*
X75750D01*
Y53550D01*
X74580D01*
X74500Y53556D01*
X74178Y53531D01*
X73865Y53456D01*
X73566Y53332D01*
X73291Y53164D01*
X73046Y52954D01*
X72836Y52709D01*
X72668Y52434D01*
X72544Y52135D01*
X72469Y51822D01*
X72444Y51500D01*
X72450Y51420D01*
Y43080D01*
X72444Y43000D01*
X72469Y42678D01*
X72544Y42365D01*
X72668Y42066D01*
X72836Y41791D01*
X73046Y41546D01*
X73291Y41336D01*
X73566Y41168D01*
X73865Y41044D01*
X74178Y40969D01*
X74179Y40969D01*
X74500Y40944D01*
X74580Y40950D01*
X75750D01*
Y2000D01*
X31750D01*
Y11626D01*
X31962Y12138D01*
X32539Y14539D01*
X32684Y17000D01*
X32539Y19461D01*
X31962Y21862D01*
X31750Y22374D01*
Y43084D01*
X31863Y43268D01*
X32224Y44140D01*
X32444Y45058D01*
X32500Y46000D01*
X32444Y46942D01*
X32224Y47860D01*
X31863Y48732D01*
X31750Y48916D01*
Y63084D01*
X31863Y63268D01*
X32224Y64140D01*
X32444Y65058D01*
X32500Y66000D01*
X32444Y66942D01*
X32224Y67860D01*
X31863Y68732D01*
X31750Y68916D01*
Y82248D01*
X31868Y82257D01*
X31982Y82285D01*
X32092Y82330D01*
X32192Y82391D01*
X32282Y82468D01*
X32359Y82558D01*
X32420Y82658D01*
X32465Y82768D01*
X32493Y82882D01*
X32500Y83000D01*
Y89000D01*
X32493Y89118D01*
X32465Y89232D01*
X32420Y89342D01*
X32359Y89442D01*
X32282Y89532D01*
X32192Y89609D01*
X32092Y89670D01*
X31982Y89715D01*
X31868Y89743D01*
X31750Y89752D01*
Y161626D01*
G37*
G36*
Y48916D02*X31369Y49538D01*
X30756Y50256D01*
X30038Y50869D01*
X29232Y51363D01*
X28360Y51724D01*
X27442Y51944D01*
X26500Y52019D01*
Y59981D01*
X27442Y60056D01*
X28360Y60276D01*
X29232Y60637D01*
X30038Y61131D01*
X30756Y61744D01*
X31369Y62462D01*
X31750Y63084D01*
Y48916D01*
G37*
G36*
Y22374D02*X31018Y24142D01*
X29728Y26247D01*
X28124Y28124D01*
X26500Y29512D01*
Y39981D01*
X27442Y40056D01*
X28360Y40276D01*
X29232Y40637D01*
X30038Y41131D01*
X30756Y41744D01*
X31369Y42462D01*
X31750Y43084D01*
Y22374D01*
G37*
G36*
Y2000D02*X26500D01*
Y4488D01*
X28124Y5876D01*
X29728Y7753D01*
X31018Y9858D01*
X31750Y11626D01*
Y2000D01*
G37*
G36*
Y172374D02*X31018Y174142D01*
X29728Y176247D01*
X28124Y178124D01*
X26500Y179512D01*
Y182000D01*
X31750D01*
Y172374D01*
G37*
G36*
X26500Y154488D02*X28124Y155876D01*
X29728Y157753D01*
X31018Y159858D01*
X31750Y161626D01*
Y89752D01*
X31632Y89743D01*
X31518Y89715D01*
X31408Y89670D01*
X31308Y89609D01*
X31218Y89532D01*
X31141Y89442D01*
X31080Y89342D01*
X31035Y89232D01*
X31007Y89118D01*
X31000Y89000D01*
Y83000D01*
X31007Y82882D01*
X31035Y82768D01*
X31080Y82658D01*
X31141Y82558D01*
X31218Y82468D01*
X31308Y82391D01*
X31408Y82330D01*
X31518Y82285D01*
X31632Y82257D01*
X31750Y82248D01*
Y68916D01*
X31369Y69538D01*
X30756Y70256D01*
X30038Y70869D01*
X29232Y71363D01*
X28360Y71724D01*
X27442Y71944D01*
X26500Y72019D01*
Y80000D01*
X29500D01*
X29618Y80007D01*
X29732Y80035D01*
X29842Y80080D01*
X29942Y80141D01*
X30032Y80218D01*
X30109Y80308D01*
X30170Y80408D01*
X30215Y80518D01*
X30243Y80632D01*
X30252Y80750D01*
X30243Y80868D01*
X30215Y80982D01*
X30170Y81092D01*
X30109Y81192D01*
X30032Y81282D01*
X29942Y81359D01*
X29842Y81420D01*
X29732Y81465D01*
X29618Y81493D01*
X29500Y81500D01*
X26500D01*
Y90500D01*
X29500D01*
X29618Y90507D01*
X29732Y90535D01*
X29842Y90580D01*
X29942Y90641D01*
X30032Y90718D01*
X30109Y90808D01*
X30170Y90908D01*
X30215Y91018D01*
X30243Y91132D01*
X30252Y91250D01*
X30243Y91368D01*
X30215Y91482D01*
X30170Y91592D01*
X30109Y91692D01*
X30032Y91782D01*
X29942Y91859D01*
X29842Y91920D01*
X29732Y91965D01*
X29618Y91993D01*
X29500Y92000D01*
X26500D01*
Y154488D01*
G37*
G36*
Y2000D02*X21705D01*
X21862Y2038D01*
X24142Y2982D01*
X26247Y4272D01*
X26500Y4488D01*
Y2000D01*
G37*
G36*
Y179512D02*X26247Y179728D01*
X24142Y181018D01*
X21862Y181962D01*
X21705Y182000D01*
X26500D01*
Y179512D01*
G37*
G36*
X21250Y43084D02*X21631Y42462D01*
X22244Y41744D01*
X22962Y41131D01*
X23768Y40637D01*
X24640Y40276D01*
X25558Y40056D01*
X26500Y39981D01*
X26500D01*
Y29512D01*
X26247Y29728D01*
X24142Y31018D01*
X21862Y31962D01*
X21250Y32109D01*
Y43084D01*
G37*
G36*
Y63084D02*X21631Y62462D01*
X22244Y61744D01*
X22962Y61131D01*
X23768Y60637D01*
X24640Y60276D01*
X25558Y60056D01*
X26500Y59981D01*
X26500D01*
Y52019D01*
X26500D01*
X25558Y51944D01*
X24640Y51724D01*
X23768Y51363D01*
X22962Y50869D01*
X22244Y50256D01*
X21631Y49538D01*
X21250Y48916D01*
Y63084D01*
G37*
G36*
Y151891D02*X21862Y152038D01*
X24142Y152982D01*
X26247Y154272D01*
X26500Y154488D01*
Y92000D01*
X23500D01*
X23382Y91993D01*
X23268Y91965D01*
X23158Y91920D01*
X23058Y91859D01*
X22968Y91782D01*
X22891Y91692D01*
X22830Y91592D01*
X22785Y91482D01*
X22757Y91368D01*
X22748Y91250D01*
X22757Y91132D01*
X22785Y91018D01*
X22830Y90908D01*
X22891Y90808D01*
X22968Y90718D01*
X23058Y90641D01*
X23158Y90580D01*
X23268Y90535D01*
X23382Y90507D01*
X23500Y90500D01*
X26500D01*
Y81500D01*
X23500D01*
X23382Y81493D01*
X23268Y81465D01*
X23158Y81420D01*
X23058Y81359D01*
X22968Y81282D01*
X22891Y81192D01*
X22830Y81092D01*
X22785Y80982D01*
X22757Y80868D01*
X22748Y80750D01*
X22757Y80632D01*
X22785Y80518D01*
X22830Y80408D01*
X22891Y80308D01*
X22968Y80218D01*
X23058Y80141D01*
X23158Y80080D01*
X23268Y80035D01*
X23382Y80007D01*
X23500Y80000D01*
X26500D01*
Y72019D01*
X26500D01*
X25558Y71944D01*
X24640Y71724D01*
X23768Y71363D01*
X22962Y70869D01*
X22244Y70256D01*
X21631Y69538D01*
X21250Y68916D01*
Y82248D01*
X21368Y82257D01*
X21482Y82285D01*
X21592Y82330D01*
X21692Y82391D01*
X21782Y82468D01*
X21859Y82558D01*
X21920Y82658D01*
X21965Y82768D01*
X21993Y82882D01*
X22000Y83000D01*
Y89000D01*
X21993Y89118D01*
X21965Y89232D01*
X21920Y89342D01*
X21859Y89442D01*
X21782Y89532D01*
X21692Y89609D01*
X21592Y89670D01*
X21482Y89715D01*
X21368Y89743D01*
X21250Y89752D01*
Y151891D01*
G37*
G36*
X2000Y21705D02*Y162295D01*
X2038Y162138D01*
X2982Y159858D01*
X4272Y157753D01*
X5876Y155876D01*
X7753Y154272D01*
X9858Y152982D01*
X12138Y152038D01*
X14539Y151461D01*
X17000Y151268D01*
X19461Y151461D01*
X21250Y151891D01*
Y89752D01*
X21132Y89743D01*
X21018Y89715D01*
X20908Y89670D01*
X20808Y89609D01*
X20718Y89532D01*
X20641Y89442D01*
X20580Y89342D01*
X20535Y89232D01*
X20507Y89118D01*
X20500Y89000D01*
Y83000D01*
X20507Y82882D01*
X20535Y82768D01*
X20580Y82658D01*
X20641Y82558D01*
X20718Y82468D01*
X20808Y82391D01*
X20908Y82330D01*
X21018Y82285D01*
X21132Y82257D01*
X21250Y82248D01*
Y68916D01*
X21137Y68732D01*
X20776Y67860D01*
X20556Y66942D01*
X20481Y66000D01*
X20556Y65058D01*
X20776Y64140D01*
X21137Y63268D01*
X21250Y63084D01*
Y48916D01*
X21137Y48732D01*
X20776Y47860D01*
X20556Y46942D01*
X20481Y46000D01*
X20556Y45058D01*
X20776Y44140D01*
X21137Y43268D01*
X21250Y43084D01*
Y32109D01*
X19461Y32539D01*
X17000Y32732D01*
X14539Y32539D01*
X12138Y31962D01*
X9858Y31018D01*
X7753Y29728D01*
X5876Y28124D01*
X4272Y26247D01*
X2982Y24142D01*
X2038Y21862D01*
X2000Y21705D01*
G37*
G54D33*X77000Y51500D02*Y43000D01*
X74500Y51500D02*X77000D01*
Y43000D02*X74500D01*
Y51500D02*Y43000D01*
X108000Y51500D02*Y43000D01*
Y51500D02*X110500D01*
Y43000D02*X108000D01*
X110500Y51500D02*Y43000D01*
G54D34*X107500Y33000D02*Y24000D01*
G54D32*G36*
X22000Y90500D02*Y81500D01*
X31000D01*
Y90500D01*
X22000D01*
G37*
G54D35*X17000Y167000D03*
G54D32*G36*
X169000Y50500D02*Y41500D01*
X178000D01*
Y50500D01*
X169000D01*
G37*
G54D36*X173500Y66000D03*
Y86000D03*
G54D35*X17000Y17000D03*
G54D36*X26500Y66000D03*
Y46000D03*
G54D35*X183000Y167000D03*
Y17000D03*
G54D37*X88500Y28000D03*
X92500D03*
X96500D03*
X108000Y43000D03*
X107500Y33000D03*
Y24000D03*
X110500Y43000D03*
Y39500D03*
X123000Y30000D03*
Y27000D03*
X120000Y40500D03*
Y38000D03*
X108000Y51500D03*
X110500D03*
X74500D03*
X77000D03*
X74500Y43000D03*
X77000D03*
X48500Y14000D03*
X45500D03*
X51500Y37000D03*
X71000D03*
X74000Y38500D03*
X77000D03*
X71000Y40000D03*
X61500Y37000D03*
Y40000D03*
X92500Y61000D03*
X96500D03*
X88500D03*
X107000Y61134D03*
X92500Y64000D03*
X96500D03*
X88500D03*
X92500Y72500D03*
Y68500D03*
X100500Y66000D03*
X105500D03*
X109000D03*
X112500D03*
X88500Y96500D03*
X84500D03*
X80500D03*
X92500Y92500D03*
Y88500D03*
Y84500D03*
X76500Y96500D03*
X72500D03*
X68500D03*
X64500D03*
X60500D03*
X56500D03*
X52500D03*
X48500D03*
X44500D03*
X40500D03*
X92500Y80500D03*
Y76500D03*
X84500Y66000D03*
X72500D03*
X79500D03*
X76000D03*
X160500Y119000D03*
X166500Y145500D03*
X181500D03*
X92500Y96500D03*
X96500D03*
X100500D03*
X104500D03*
X108500D03*
X112500D03*
X116500D03*
X120500D03*
X124500D03*
X128500D03*
X132500D03*
X136500D03*
X139000Y84500D03*
X142500D03*
Y88000D03*
X139000D03*
Y91500D03*
X140500Y96500D03*
X144500D03*
X146000Y91500D03*
X142500D03*
X145500Y71500D03*
X149000D03*
X145500Y75000D03*
Y78500D03*
X149000D03*
Y75000D03*
X146000Y84500D03*
Y88000D03*
X149500Y84500D03*
Y88000D03*
X153000Y84500D03*
Y88000D03*
G54D38*G54D39*G54D40*G54D39*G54D40*G54D39*G54D40*M02*
