G04 start of page 6 for group -4063 idx -4063 *
G04 Title: (unknown), componentmask *
G04 Creator: pcb 20140316 *
G04 CreationDate: Thu 02 Jul 2020 08:37:42 PM GMT UTC *
G04 For: railfan *
G04 Format: Gerber/RS-274X *
G04 PCB-Dimensions (mil): 2000.00 1840.00 *
G04 PCB-Coordinate-Origin: lower left *
%MOIN*%
%FSLAX25Y25*%
%LNTOPMASK*%
%ADD57R,0.0690X0.0690*%
%ADD56R,0.2160X0.2160*%
%ADD55R,0.2140X0.2140*%
%ADD54R,0.1261X0.1261*%
%ADD53R,0.0926X0.0926*%
%ADD52R,0.0237X0.0237*%
%ADD51R,0.0572X0.0572*%
%ADD50R,0.0610X0.0610*%
%ADD49R,0.0300X0.0300*%
%ADD48C,0.0600*%
%ADD47C,0.0960*%
%ADD46C,0.2997*%
%ADD45C,0.0001*%
G54D45*G36*
X21700Y90800D02*Y81200D01*
X31300D01*
Y90800D01*
X21700D01*
G37*
G54D46*X17000Y167000D03*
G54D45*G36*
X168700Y50800D02*Y41200D01*
X178300D01*
Y50800D01*
X168700D01*
G37*
G54D47*X173500Y66000D03*
Y86000D03*
G54D46*X17000Y17000D03*
G54D47*X26500Y66000D03*
Y46000D03*
G54D46*X183000Y167000D03*
Y17000D03*
G54D48*X160500Y106600D03*
G54D49*X159000Y108100D02*X162000D01*
G54D48*X160500Y113400D03*
G54D49*X159000Y111900D02*X162000D01*
G54D50*X154650Y127600D02*X157450D01*
X154650Y145400D02*X157450D01*
G54D51*X20043Y105393D02*Y104607D01*
X12957Y105393D02*Y104607D01*
Y115393D02*Y114607D01*
X20043Y115393D02*Y114607D01*
X179957Y105393D02*Y104607D01*
X187043Y105393D02*Y104607D01*
Y115393D02*Y114607D01*
X179957Y115393D02*Y114607D01*
G54D50*X190550Y127600D02*X193350D01*
X190550Y145400D02*X193350D01*
G54D51*X85957Y9893D02*Y9107D01*
X93043Y9893D02*Y9107D01*
G54D52*X80394Y35543D02*X82756D01*
X80394Y32984D02*X82756D01*
X80394Y30425D02*X82756D01*
X80394Y27866D02*X82756D01*
G54D53*X92500Y51980D02*Y37020D01*
G54D54*Y53378D02*Y35622D01*
G54D55*X90400Y168100D02*X94600D01*
G54D52*X80394Y61134D02*X82756D01*
X80394Y58575D02*X82756D01*
X80394Y56016D02*X82756D01*
X80394Y53457D02*X82756D01*
X80394Y50898D02*X82756D01*
G54D56*X72500Y81700D02*Y80700D01*
G54D51*X65957Y58393D02*Y57607D01*
X73043Y58393D02*Y57607D01*
G54D52*X102244Y27866D02*X104606D01*
X102244Y30425D02*X104606D01*
X102244Y32984D02*X104606D01*
G54D51*X111457Y28893D02*Y28107D01*
X118543Y28893D02*Y28107D01*
G54D52*X102244Y35543D02*X104606D01*
X102244Y38102D02*X104606D01*
G54D51*X129107Y38957D02*X129893D01*
X115107Y39457D02*X115893D01*
G54D52*X102244Y40661D02*X104606D01*
X102244Y43220D02*X104606D01*
X102244Y45780D02*X104606D01*
G54D51*X129107Y23957D02*X129893D01*
X129107Y31043D02*X129893D01*
G54D52*X80394Y48339D02*X82756D01*
X80394Y45780D02*X82756D01*
G54D51*X56107Y46043D02*X56893D01*
X66107D02*X66893D01*
G54D52*X80394Y43220D02*X82756D01*
X80394Y40661D02*X82756D01*
X80394Y38102D02*X82756D01*
G54D51*X66107Y38957D02*X66893D01*
X60043Y27893D02*Y27107D01*
X52957Y27893D02*Y27107D01*
Y18893D02*Y18107D01*
X60043Y18893D02*Y18107D01*
X56107Y38957D02*X56893D01*
X60043Y9893D02*Y9107D01*
X69457Y9893D02*Y9107D01*
X76543Y9893D02*Y9107D01*
X52957Y9893D02*Y9107D01*
G54D52*X102244Y48339D02*X104606D01*
X102244Y50898D02*X104606D01*
X102244Y53457D02*X104606D01*
X102244Y56016D02*X104606D01*
G54D51*X115107Y46543D02*X115893D01*
G54D52*X102244Y58575D02*X104606D01*
X102244Y61134D02*X104606D01*
G54D56*X112500Y81700D02*Y80700D01*
G54D51*X119043Y58393D02*Y57607D01*
X111957Y58393D02*Y57607D01*
G54D57*X140500Y79492D02*Y73193D01*
Y59807D02*Y53508D01*
G54D51*X129107Y46043D02*X129893D01*
M02*
